<svg xmlns="http://www.w3.org/2000/svg" viewBox="0 0 750 500"><g id="freepik--Tree--inject-384"><path d="M561.64,198.91c6.6,5,11.67,12.76,8.18,21.13-4.05,9.72-16.16,13.39-25.66,14.62-10.29,1.33-23.29.29-30.41-8.29-4.58-5.5-5.27-14.13-.83-19.6-17.31,1.33-38.57.55-47.78-16.62-3.46-6.47-4.36-14.42-1.33-21.23,3.11-7,9.88-11.25,16.7-14.13a116.34,116.34,0,0,1,53.59-8.32,100.91,100.91,0,0,1,26.22,5.09c6.55,2.36,13.17,6,16.67,12.31,3.69,6.64,2.87,14.66-.68,21.19C573,191.11,567.53,195.48,561.64,198.91Z" style="fill:#455a64"></path><path d="M711.27,179.73c-.1,2.13-3.13,4-4.71,1.94-15.49-19.95-31.8-40.21-53.18-54.17-39.23-25.6-88.72-23.35-132.91-15.2-25.06,4.62-49.76,11-74.87,15.33A315.23,315.23,0,0,1,408.48,132c-11.74.62-24.6-.29-35.52,4.65a2,2,0,0,1-2.75-2.33,1.15,1.15,0,0,1-.06-.79,64.62,64.62,0,0,1,13.13-25.12c26-30.66,68.53-36.11,106.41-36.11C501.08,51.59,525.11,41.49,547,36.07c23.24-5.75,48.13-6.45,71.25.28a103.6,103.6,0,0,1,50.78,32.93,91.52,91.52,0,0,1,15,25.43,181.44,181.44,0,0,1,5.61,20.65c.62,3,12.24,5.72,20.59,27.61C714.63,154.38,711.84,167.55,711.27,179.73Z" style="fill:#455a64"></path><path d="M704.53,198.81c-10.48,15.5-31.68,24.11-52.7,23.59-6.45,11.49-20.78,17.63-34.89,21.15a139.62,139.62,0,0,1-49.84,3c-13.66-1.63-30.25-5.25-36.17-16.91-2.43-4.79-2.76-10.47.49-15.06,3.75-5.3,11-8.07,17.47-10.5a154.89,154.89,0,0,1,17.19-5.34,71.53,71.53,0,0,1-32.57-14.49,224.71,224.71,0,0,1-80,1.17,226.76,226.76,0,0,1-34.72-8.5c-10-3.33-20-7.19-28.65-12.62-7.59-4.77-14.32-10.74-17.7-18.27-3.52-7.84-2.35-16.42,2.18-23.8,10.67-17.41,35.6-23.89,57.16-26.88,24.69-3.41,49.72-2.08,74.16,2,5.68-15.69,26.75-24.37,43.68-30.06a185.8,185.8,0,0,1,58.69-9.47c18.94,0,38.86,2.49,56.2,9,16.68,6.32,29,17.86,30.22,33.54,1.09,14.26-7.27,27.49-19.59,37A50.25,50.25,0,0,1,699.64,150C713.81,163.59,715,183.3,704.53,198.81Z" style="fill:#37474f"></path><path d="M584.29,234.07h0a.25.25,0,0,0,.11,0h0a.36.36,0,0,0,.22,0c7.51-4,4.21-15.32,1.45-21.42-.23-.5-5.84,7.78-6.08,12.18A12,12,0,0,0,584.29,234.07Z" style="fill:#455a64"></path><path d="M562.44,230s11.06-4.66,16,1.72a7.81,7.81,0,0,1-6.91,3.3C566.54,235,562.44,230,562.44,230Z" style="fill:#455a64"></path><path d="M658.51,199.26s-11.76-2.4-15.31,4.83a7.84,7.84,0,0,0,7.43,1.87C655.47,204.92,658.51,199.26,658.51,199.26Z" style="fill:#455a64"></path><path d="M383.74,124.91s.77,12,8.67,13.51a7.84,7.84,0,0,0-.14-7.66C390,126.37,383.74,124.91,383.74,124.91Z" style="fill:#455a64"></path><path d="M400.4,152.22a13.68,13.68,0,0,0-6.95-8.8,34.45,34.45,0,0,0-12.08-3S387.26,156,400.4,152.22Z" style="fill:#455a64"></path><path d="M573.75,224.79s3.37-4.58-6.39-10.89C567.36,213.9,567.23,222.45,573.75,224.79Z" style="fill:#455a64"></path><path d="M643.16,199.33s-3.08-4.78,7.08-10.45C650.24,188.88,649.81,197.43,643.16,199.33Z" style="fill:#455a64"></path><path d="M483.82,143.33s11.76-2.4,15.31,4.83A7.84,7.84,0,0,1,491.7,150C486.86,149,483.82,143.33,483.82,143.33Z" style="fill:#455a64"></path><path d="M499.18,143.4s3.07-4.78-7.09-10.45C492.09,133,492.53,141.5,499.18,143.4Z" style="fill:#455a64"></path><path d="M402.59,146.62s5.14-2.43-.48-12.61C402.11,134,398,141.48,402.59,146.62Z" style="fill:#455a64"></path><path d="M475,145.09a26.44,26.44,0,0,0,4.82,1.9h0c10.22,3.54,34.19,11,47.41,15.64h0c4.82,1.7,8.21,3,9,3.62,3.53,2.78,18.91,23.44,21.18,31.76a55.46,55.46,0,0,1,.37,7.94h0c.14,13.71-.48,43.15-1.38,76.52h0c-.23,8.53-.48,17.33-.74,26.18h0c-.39,13.44-.8,27-1.21,40.05a.34.34,0,0,1,0,.1l-.09,3.26a.45.45,0,0,1,0,.11c-.41,13.13-.82,25.62-1.18,36.75v0c-.92,27.52-1.6,46.74-1.6,46.74H637s-2-15.63-4.85-38.92v0c-1.11-8.92-2.37-19-3.7-29.7h0l-4.35-34.94h0q-1-8.2-2-16.5c-.95-7.62-1.89-15.26-2.82-22.76q-.72-5.86-1.43-11.61h0c-.39-3.13-.77-6.23-1.15-9.28-.61-4.95-1.21-9.79-1.78-14.49,0-.25-.07-.5-.1-.75-.26-2.2-.53-4.35-.79-6.47a.57.57,0,0,1,0-.12.28.28,0,0,1,0-.06c-3.84-31.3-6.6-54.27-6.6-55.54,0-4.13,18.16-51.39,18.16-51.39l-4.22-2.53s-18.68,38.76-27,42.55a13.42,13.42,0,0,1-3.25,1h0c-7.31,1.33-14.49-3.69-18.15-10.29-2.93-5.26-7.52-17.38-10.75-25-1.42-3.38-2.57-5.87-3.21-6.53s-3.93-.51-4,.51c-.64,5.9,10.84,30.49,7.82,33.51-.91.91-5.15-2.63-10.71-8.07h0c-8.32-8.16-19.57-20.57-27-28.76l-.05-.06c-4.12-4.54-7-7.76-7.62-8.21-2.27-1.76-4.17,2.12-3.28,3,.73.74,20.17,21.67,19.41,24.44S478,140.8,476.73,141.81,474.21,143.82,475,145.09Z" style="fill:#B0AE7E"></path><path d="M614,250a.28.28,0,0,0,0,.06c.08,1,1.18,14.28,2.18,23.84.81,7.75,1.56,13,1.65,7.28h0c.07-4.84,4.36-15.78,9.74-27.89,9.23-20.77,21.67-44.95,21.5-47.49-.26-4-3.23-3.15-3.23-3.15-1.34,0-5.36,8.84-12.85,23.83S616.08,256.24,614,250Z" style="fill:#B0AE7E"></path><g style="opacity:0.6000000000000001"><path d="M475,145.09a26.44,26.44,0,0,0,4.82,1.9h0c10.22,3.54,34.19,11,47.41,15.64h0c4.82,1.7,8.21,3,9,3.62,3.53,2.78,18.91,23.44,21.18,31.76a55.46,55.46,0,0,1,.37,7.94h0c.14,13.71-.48,43.15-1.38,76.52h0c-.23,8.53-.48,17.33-.74,26.18h0c-.39,13.44-.8,27-1.21,40.05a.34.34,0,0,1,0,.1l-.09,3.26a.45.45,0,0,1,0,.11c-.41,13.13-.82,25.62-1.18,36.75v0c-.92,27.52-1.6,46.74-1.6,46.74H637s-2-15.63-4.85-38.92v0c-1.11-8.92-2.37-19-3.7-29.7h0l-4.35-34.94h0q-1-8.2-2-16.5c-.95-7.62-1.89-15.26-2.82-22.76q-.72-5.86-1.43-11.61h0c-.39-3.13-.77-6.23-1.15-9.28-.61-4.95-1.21-9.79-1.78-14.49,0-.25-.07-.5-.1-.75-.26-2.2-.53-4.35-.79-6.47a.57.57,0,0,1,0-.12.28.28,0,0,1,0-.06c-3.84-31.3-6.6-54.27-6.6-55.54,0-4.13,18.16-51.39,18.16-51.39l-4.22-2.53s-18.68,38.76-27,42.55a13.42,13.42,0,0,1-3.25,1h0c-7.31,1.33-14.49-3.69-18.15-10.29-2.93-5.26-7.52-17.38-10.75-25-1.42-3.38-2.57-5.87-3.21-6.53s-3.93-.51-4,.51c-.64,5.9,10.84,30.49,7.82,33.51-.91.91-5.15-2.63-10.71-8.07h0c-8.32-8.16-19.57-20.57-27-28.76l-.05-.06c-4.12-4.54-7-7.76-7.62-8.21-2.27-1.76-4.17,2.12-3.28,3,.73.74,20.17,21.67,19.41,24.44S478,140.8,476.73,141.81,474.21,143.82,475,145.09Z"></path><path d="M614,250a.28.28,0,0,0,0,.06c.08,1,1.18,14.28,2.18,23.84.81,7.75,1.56,13,1.65,7.28h0c.07-4.84,4.36-15.78,9.74-27.89,9.23-20.77,21.67-44.95,21.5-47.49-.26-4-3.23-3.15-3.23-3.15-1.34,0-5.36,8.84-12.85,23.83S616.08,256.24,614,250Z"></path></g><g style="opacity:0.1"><path d="M594.72,295.25A174.72,174.72,0,0,0,599,327c4.07,19,9.73,37.65,13.41,56.74a289.44,289.44,0,0,1,4.27,30.3q.65,7.76,1,15.53c.09,2,.14,4,.21,6.08h6c-.09-3.19-.34-6.4-.5-9.53-.3-5.75-.72-11.5-1.3-17.24-2-19.54-6.74-38.13-12.35-56.9S599,314.64,596.85,295.25C596.7,293.91,594.68,293.85,594.72,295.25Z"></path><path d="M597.91,218.18c2.37,9.08,4.37,18.27,6.55,27.39s4.54,18.26,5.94,27.56c2.75,18.2,1.82,36.43.43,54.68a.77.77,0,0,1-1.53,0c-.26-18.16-.08-36.5-2.43-54.54-2.4-18.41-7-36.47-10.19-54.75C596.55,217.73,597.7,217.38,597.91,218.18Z"></path><path d="M594.36,267.15a158.34,158.34,0,0,0,.67-22,.49.49,0,0,1,1-.13c1.76,6.71.88,14.18.51,21-.4,7.34,0,14.63-.19,21.95a.7.7,0,0,1-1.36.18C592.44,281.59,593.66,274,594.36,267.15Z"></path><path d="M601.67,274.32c1.3,4.11,1.62,8.77,1.93,13a92.94,92.94,0,0,1-.1,14.06.41.41,0,0,1-.81,0c-.43-4.5-.83-9-1.25-13.49s-1.2-9-1.16-13.42A.71.71,0,0,1,601.67,274.32Z"></path><path d="M560.76,423.13c1.29-10.52,2-21.16,2.94-31.72s1.7-20.92,2-31.42.52-21,.29-31.49-1.41-21.33-1.33-31.95a1.07,1.07,0,0,1,2.09-.28c2.53,10,3.2,20.83,3.92,31.09a323,323,0,0,1,.77,32.63c-.32,10.68-1,21.38-2.36,32a273.09,273.09,0,0,1-6.29,31.43C562.55,424.53,560.62,424.33,560.76,423.13Z"></path><path d="M574.66,435.68h5.26c.52-2.81.85-5.64,1.14-8.36a190.83,190.83,0,0,0,.64-21.39c-.15-15.41-1.52-30.68-2.23-46a.88.88,0,0,0-1.76,0c-.37,15-1.36,29.92-1.26,44.95,0,7.14,0,14.26-.56,21.39C575.65,429.42,575.18,432.55,574.66,435.68Z"></path><path d="M576.55,327.89a1,1,0,0,1,1.89,0,105.58,105.58,0,0,1-.14,22.62.53.53,0,0,1-1.06,0C576.63,343,576.53,335.41,576.55,327.89Z"></path><path d="M589.51,322.73a1.2,1.2,0,0,1,2.3,0c1.43,8.5,1.57,17.27,2.59,25.85,1,8.76,2.21,17.52,3.78,26.2,3.12,17.31,7.18,34.48,11.89,51.42.17.6-.75,1-1,.44a197.6,197.6,0,0,1-16.58-50.85,216.5,216.5,0,0,1-3.31-26.1C588.62,340.84,588,331.5,589.51,322.73Z"></path><path d="M588,406.61c0,4.27,0,8.55.13,12.83.12,4.48.52,8.94.84,13.42.07.89.1,1.84.13,2.82h5.13c0-1.18,0-2.34,0-3.4a122.18,122.18,0,0,0-.52-12.84c-.44-4.28-1.1-8.54-1.78-12.77s-1.11-9-2.49-13c-.17-.5-1.06-.63-1.16,0C587.56,397.81,587.93,402.38,588,406.61Z"></path><path d="M621.66,365.15c3.36,10.5,7.16,20.83,10.41,31.36,0,.08,0,.15.07.23-1.11-8.92-2.37-19-3.7-29.7h0c-.1-.29-.2-.58-.29-.87a87.76,87.76,0,0,1-4.26-16.56,73.19,73.19,0,0,1,.14-16.93l.06-.58h0q-1-8.2-2-16.5a120.37,120.37,0,0,0-3.67,17.09A72.86,72.86,0,0,0,621.66,365.15Z"></path><path d="M556.38,282.47c.36-1.19.66-2.39,1-3.52A111.3,111.3,0,0,0,560,267.1a149.09,149.09,0,0,0,1.94-23.3,161.65,161.65,0,0,0-1.47-23.37c-.54-4-1.29-8-2.16-12-.18-.81-.35-1.66-.53-2.53C557.9,219.66,557.28,249.1,556.38,282.47Z"></path><path d="M582.13,227.53c.1-.71,1.14-.48,1.18.16.55,8.15.7,16.36,1.12,24.52.41,8,1,16,1.32,24s.41,16,0,23.93a162.21,162.21,0,0,1-3.21,23.42c-.13.63-1.12.48-1.12-.15.21-16.11-.81-32.26-.93-48.36C580.4,259.32,579.79,243.07,582.13,227.53Z"></path><path d="M571.14,212.2c.06-.52.86-.55.84,0a423.16,423.16,0,0,0,.56,45.61c1,15.16,3.3,30,1.33,45.2-.09.69-1.13.74-1.11,0,.18-7.8-1.21-15.48-2.22-23.18a219.23,219.23,0,0,1-1.91-22C568.16,242.51,569.48,227.39,571.14,212.2Z"></path><path d="M553.14,388.92c.73-3.52,1.42-7.05,2.11-10.58,1.57-8,3.39-16.07,4-24.23s-.32-16.28-1.2-24.34c-.76-7-1.6-14.08-2.43-21.12-.39,13.44-.8,27-1.21,40.05a.34.34,0,0,1,0,.1c0,1.08,0,2.17-.09,3.26a.45.45,0,0,1,0,.11C553.91,365.3,553.5,377.79,553.14,388.92Z"></path><path d="M614.91,256.57c3.65-1.95,6.12-6.34,8.48-9.62s4.68-6.74,7-10.11c.17-.23.64-.09.51.22a70.58,70.58,0,0,1-6.71,13.44c-2.07,3-4.93,7.26-9,7.06A.54.54,0,0,1,614.91,256.57Z"></path><path d="M634.3,227c1-1.75,2.05-3.49,3-5.27a.52.52,0,0,1,.95.4,42.33,42.33,0,0,1-2,5.59c-.69,1.54-1.42,3.69-3,4.44a.69.69,0,0,1-1-.58C632.16,229.91,633.49,228.4,634.3,227Z"></path><path d="M616.52,283a89.78,89.78,0,0,0,2.71,9.82q-.72-5.86-1.43-11.61h0c.07-4.84,4.36-15.78,9.74-27.89-4.19,5.5-8.18,11.22-10.59,17.72-.11.3-.21.59-.3.89a15.53,15.53,0,0,0-.5,2A21.41,21.41,0,0,0,616.52,283Z"></path><path d="M603.52,207.41c4.64,12.16,6,25.84,5,38.81,0,.66-1.15.93-1.25.17-1.74-12.91-1.42-26-4.81-38.69A.54.54,0,0,1,603.52,207.41Z"></path><path d="M589.38,202.69a.51.51,0,0,1,1,0c1.06,15.86,1.48,32.14-.41,48a.41.41,0,0,1-.81,0C588.16,234.74,588.78,218.6,589.38,202.69Z"></path><path d="M606.14,175.57a.73.73,0,0,1,1.26.73c-6,11-8.29,23.34-11.52,35.31a.78.78,0,0,1-1.53-.2C593.61,198.42,599.42,186.24,606.14,175.57Z"></path><path d="M562.11,148.84c0,4.8,2.16,10.12,3.59,14.48a85.94,85.94,0,0,0,5.63,13.94c2,3.68,4.88,7.49,8.85,9.15s7.53-.09,10.83-2.26c-7.31,1.33-14.49-3.69-18.15-10.29C569.93,168.6,565.34,156.48,562.11,148.84Z"></path><path d="M567.09,181.9a98.18,98.18,0,0,1,6.73,10.24,47.69,47.69,0,0,1,5.12,10.59,36.4,36.4,0,0,1,1.12,11.76c-.16,4.39-1.43,8.25-2.26,12.5-.08.42-.79.33-.75-.1.37-3.85-.23-8-.32-11.84a49.22,49.22,0,0,0-1.3-11.35c-2-7.46-6.08-14.11-9.34-21C565.81,182.08,566.61,181.3,567.09,181.9Z"></path><path d="M582.89,203.81c.16-3.53.27-7.71,1.65-11,.17-.39.87-.55,1,0,.62,3.54,0,7.43-.25,11-.29,4-.74,8-1.07,12.05a.46.46,0,0,1-.91,0A93.2,93.2,0,0,1,582.89,203.81Z"></path><path d="M593.27,186.83a.48.48,0,0,1,.82.48c-1.28,2.52-1.83,5.28-3,7.81a.63.63,0,0,1-1.18-.32C590,192,591.72,189.15,593.27,186.83Z"></path><path d="M550,173.63c5.4,5.68,10.49,12.27,13.56,19.51,3.59,8.44,3,16.82,2.11,25.72a.63.63,0,0,1-1.25,0c-.63-8.09-1.43-16.6-4.08-24.32-2.55-7.44-7-13.64-11.63-19.92C548.17,173.86,549.39,173,550,173.63Z"></path><path d="M525,139.49c.89,1.29,1.78,2.53,2.55,3.73,2.43,3.8,4.9,7.6,7.54,11.26A42.79,42.79,0,0,0,552,168.25C543.64,160.09,532.39,147.68,525,139.49Z"></path><path d="M533.22,161.42a31.42,31.42,0,0,1,7.51,4.13c1.77,1.28,4.32,2.84,4.91,5a.25.25,0,0,1-.3.3c-2.22-.31-4.39-2.59-6.11-3.92-2.12-1.64-4.35-3.2-6.36-5A.36.36,0,0,1,533.22,161.42Z"></path><path d="M479.81,147c10.22,3.54,34.19,11,47.41,15.64-7.73-4.13-16.14-7-24.47-9.66C495.33,150.62,487.56,148.23,479.81,147Z"></path></g></g><g id="freepik--Character--inject-384"><path d="M346.12,434c2.29.84,68.4,2.9,71,1.38.27-.17,2-9.92,2.89-17.48,0-.08,1.82-1.31,4.56-3.11,8.67-5.7,26.72-17.26,26.72-17.26l-33.36-28.2-31.53,31.84-1.5,1.52-6.7,6.76s-26.82,13.2-29.47,15.16S343.83,433.16,346.12,434Z" style="fill: rgb(247, 169, 160);"></path><path d="M346.12,434c2.29.84,68.4,2.9,71,1.38.27-.17,2-9.92,2.89-17.48,0-.08,1.82-1.31,4.56-3.11l-39.67-12.1-6.7,6.76s-26.82,13.2-29.47,15.16S343.83,433.16,346.12,434Z" style="fill:#fff"></path><path d="M345.27,434.08c2.34.85,69.9,2.61,72.52,1.05,1-.58,1.53-5.33,2.19-17.23l-43-7.71s-26.43,12.27-29.12,14.29S342.93,433.23,345.27,434.08Z" style="fill:#B0AE7E"></path><path d="M353.08,434.65c18.34.84,62.6,1.74,64.71.49,1-.59,1.53-5.33,2.19-17.24l-26.17-4.7C385.17,417.57,363.37,429.17,353.08,434.65Z" style="opacity:0.1"></path><path d="M346.31,431.4c11.33,0,57,1.16,68.24,2,.09,0,.09.07,0,.07-11.23.23-56.93-1.28-68.25-1.92C346.07,431.58,346.07,431.4,346.31,431.4Z" style="fill:#263238"></path><path d="M352.28,422.16a9.07,9.07,0,0,1,6.7,2.94,8.81,8.81,0,0,1,2.38,6.11.07.07,0,0,1-.14,0,10.51,10.51,0,0,0-8.94-8.91A.07.07,0,0,1,352.28,422.16Z" style="fill:#263238"></path><path d="M372.31,412.57c4.53.06,9.75,1.79,12.47,5.57.1.15-.11.3-.24.23a62.34,62.34,0,0,0-12.33-5.24A.29.29,0,0,1,372.31,412.57Z" style="fill:#263238"></path><path d="M368.77,413.84c4.54.06,9.75,1.8,12.47,5.58.11.14-.1.29-.24.22a62.26,62.26,0,0,0-12.32-5.24A.29.29,0,0,1,368.77,413.84Z" style="fill:#263238"></path><path d="M365.24,415.12c4.53.05,9.75,1.79,12.47,5.57.1.15-.11.29-.24.22a62.94,62.94,0,0,0-12.33-5.24A.28.28,0,0,1,365.24,415.12Z" style="fill:#263238"></path><path d="M361.7,416.39c4.54.06,9.75,1.79,12.47,5.57.11.15-.1.3-.24.22A62.82,62.82,0,0,0,361.61,417,.29.29,0,0,1,361.7,416.39Z" style="fill:#263238"></path><path d="M412,422.61c5.08.14,4.86,8.05-.23,7.9S406.85,422.46,412,422.61Z" style="fill:#fff"></path><path d="M367.91,407c2.37,3.22,6,5.3,9.21,7.62a.55.55,0,0,0,.82-.34c.08,0,.15,0,.15-.13a23.78,23.78,0,0,0-3.82-11.7c-1.36-2-4.2-3.95-6.55-2.1S366.53,405.12,367.91,407Zm-.11-3.76c.58-4.92,4.93-1,5.88.51a27.3,27.3,0,0,1,1.57,3.1,70.72,70.72,0,0,1,2.38,6.78c-1.49-1.23-3.07-2.33-4.6-3.5C371.21,408.72,367.48,406,367.8,403.24Z" style="fill:#263238"></path><path d="M394.26,411.68c-.27-3-3.64-3.7-6-3.3a23.76,23.76,0,0,0-11.12,5.29.12.12,0,0,0,0,.19.56.56,0,0,0,.32.84c3.86.7,7.91,1.93,11.87,1.42C391.62,415.83,394.53,414.49,394.26,411.68Zm-10.74,2.88c-1.91-.3-3.79-.69-5.71-.92a71.15,71.15,0,0,1,6.55-2.94,24.58,24.58,0,0,1,3.34-1c1.75-.37,7.58.1,4.41,3.91C390.37,415.72,385.79,414.92,383.52,414.56Z" style="fill:#263238"></path><path d="M366.3,415.53c2.66-1.47,5.31-3,8-4.34a14.73,14.73,0,0,0,3.55-2.28c1.1-1,2.14-2.13,3.22-3.19,4.37-4.29,8.73-8.6,13.14-12.86,2.39-2.3,4.75-4.63,7.11-6.95.06-.06.16,0,.11.08-.15.24-4.11,4.6-6,6.57-2.14,2.22-4.33,4.4-6.51,6.59l-6.48,6.51-3.28,3.26a12.73,12.73,0,0,1-3.34,2.45c-3.11,1.52-6.27,2.92-9.44,4.33A.1.1,0,0,1,366.3,415.53Z" style="fill:#263238"></path><path d="M394.49,386.39l4.83,6,24.06,30.07s36-23.82,46.65-31.73c.34-.26,39.37,30,68.59,36.84,22.4,5.22,38.15-2.62,47.93-23.29L550,386.12c-30.61-16.81-64.78-42.93-86.21-41.29C440.46,346.61,394.49,386.39,394.49,386.39Z" style="fill:#37474f"></path><path d="M402.56,384.63c4.95,5.86,3.61,4.11,8.5,10,2.39,2.89,14.46,17.42,16.24,20.49a.07.07,0,0,1-.11.09c-2.64-2.38-14.39-17.15-16.73-20.09-4.78-6-3.35-4.33-8.07-10.39A.11.11,0,1,1,402.56,384.63Z" style="fill:#263238"></path><path d="M403.14,397.2l20.24,25.28s36-23.82,46.65-31.73c.34-.26,39.37,30,68.59,36.84,22.4,5.22,38.15-2.62,47.93-23.29L550,386.12c-4.06-2.23-8.17-4.62-12.31-7.08C504.59,383.57,432.17,393.3,403.14,397.2Z" style="fill:#263238"></path><path d="M354.74,444.41c2.29.82,68.41,2.31,71,.78.27-.18,2-9.95,2.75-17.51,0-.08,1.8-1.32,4.53-3.15,8.62-5.78,26.57-17.49,26.57-17.49L426,379.12,394.7,411.24l-1.49,1.53-6.63,6.82S359.87,433,357.24,435,352.43,443.59,354.74,444.41Z" style="fill: rgb(247, 169, 160);"></path><path d="M354.74,444.41c2.29.82,68.41,2.31,71,.78.27-.18,2-9.95,2.75-17.51,0-.08,1.8-1.32,4.53-3.15l-39.78-11.76-6.63,6.82S359.87,433,357.24,435,352.43,443.59,354.74,444.41Z" style="fill:#fff"></path><path d="M353.89,444.5c2.34.83,69.92,2,72.52.43,1-.6,1.48-5.34,2-17.25l-43.06-7.34s-26.33,12.49-29,14.53S351.54,443.67,353.89,444.5Z" style="fill:#B0AE7E"></path><path d="M354.9,441.81c11.33-.08,57.05.67,68.26,1.45.09,0,.09.07,0,.07-11.23.33-56.94-.79-68.26-1.33C354.66,442,354.66,441.82,354.9,441.81Z" style="fill:#263238"></path><path d="M360.79,432.52a9.1,9.1,0,0,1,6.73,2.88,8.83,8.83,0,0,1,2.43,6.09.07.07,0,0,1-.14,0,10.51,10.51,0,0,0-9-8.83A.07.07,0,0,1,360.79,432.52Z" style="fill:#263238"></path><path d="M380.74,422.76c4.53,0,9.76,1.71,12.51,5.46.11.15-.1.3-.23.23a62.58,62.58,0,0,0-12.37-5.14A.28.28,0,0,1,380.74,422.76Z" style="fill:#263238"></path><path d="M377.21,424.06c4.54,0,9.77,1.71,12.52,5.47.11.14-.1.29-.24.22a62.55,62.55,0,0,0-12.37-5.13A.29.29,0,0,1,377.21,424.06Z" style="fill:#263238"></path><path d="M373.69,425.36c4.53,0,9.76,1.71,12.51,5.47.11.15-.1.3-.23.22a63.15,63.15,0,0,0-12.37-5.13A.29.29,0,0,1,373.69,425.36Z" style="fill:#263238"></path><path d="M370.16,426.67c4.54,0,9.77,1.71,12.52,5.46.11.15-.1.3-.23.23a63.09,63.09,0,0,0-12.37-5.14A.28.28,0,0,1,370.16,426.67Z" style="fill:#263238"></path><path d="M420.46,432.45c5.09.1,4.94,8-.16,7.91S415.37,432.35,420.46,432.45Z" style="fill:#fff"></path><path d="M376.29,417.23c2.39,3.19,6.09,5.25,9.28,7.54a.56.56,0,0,0,.82-.36.11.11,0,0,0,.14-.12,23.78,23.78,0,0,0-3.91-11.67c-1.39-2-4.24-3.91-6.57-2.05S374.9,415.36,376.29,417.23Zm-.14-3.76c.54-4.93,4.92-1.06,5.88.45a24.43,24.43,0,0,1,1.6,3.09,70.75,70.75,0,0,1,2.44,6.76c-1.5-1.22-3.09-2.3-4.63-3.46C379.61,418.92,375.85,416.18,376.15,413.47Z" style="fill:#263238"></path><path d="M402.68,421.68c-.3-3-3.67-3.67-6.06-3.25a23.83,23.83,0,0,0-11.07,5.38.13.13,0,0,0,0,.2.56.56,0,0,0,.33.83c3.87.67,7.92,1.86,11.88,1.33C400.08,425.85,403,424.48,402.68,421.68Zm-10.72,3c-1.91-.28-3.79-.65-5.71-.87,2.16-1,4.26-2.17,6.53-3a26,26,0,0,1,3.32-1c1.75-.38,7.59,0,4.45,3.87C398.82,425.75,394.24,425,392,424.65Z" style="fill:#263238"></path><path d="M374.75,425.77c2.65-1.49,5.29-3,8-4.41a14.59,14.59,0,0,0,3.54-2.31c1.09-1.05,2.12-2.15,3.19-3.22,4.34-4.33,8.66-8.68,13-13,2.37-2.32,4.71-4.67,7.05-7a.07.07,0,0,1,.11.08c-.15.24-4.07,4.63-6,6.62-2.13,2.24-4.3,4.44-6.45,6.64l-6.43,6.57q-1.62,1.65-3.26,3.29a12.34,12.34,0,0,1-3.31,2.47c-3.09,1.55-6.25,3-9.4,4.42C374.74,426,374.64,425.83,374.75,425.77Z" style="fill:#263238"></path><path d="M592.92,398s3.67,26.73-10.69,37.45c-10.35,7.72-23.5,8-34.77,5.83-31.16-5.85-56.05-44.9-66.38-47.38-5.31-1.28-49.22,38.46-49.22,38.46l-31.27-33.08c8.63-6.85,60.41-54.77,85.43-53.66,17.13.76,59,38.26,60,37.89,1.73-.6,9.5-3.91,9.5-3.91Z" style="fill:#37474f"></path><path d="M407.35,396.23c3.93,3.62,7.6,7.54,11.3,11.38s7.35,7.67,11,11.56c2,2.21,4.08,4.43,6,6.7.05.06,0,.13-.09.08-3.89-3.68-7.6-7.53-11.31-11.38s-7.35-7.66-11-11.54c-2.05-2.2-4.13-4.4-6.05-6.7A.07.07,0,1,1,407.35,396.23Z" style="fill:#263238"></path><path d="M567.12,392.77c.06-.14.27,0,.23.11a17.41,17.41,0,0,0,.87,11.87c1.94,4.14,5.66,7.21,9,10.25.31.29-.13.79-.48.57a35.24,35.24,0,0,1-6-4.86,17.17,17.17,0,0,1-3.91-5.7A15.21,15.21,0,0,1,567.12,392.77Z" style="fill:#263238"></path><path d="M545.34,386.16c1-.67,2-1.28,3-1.92,2.41-1.5,4.83-3,7.29-4.42.24-.14.49.24.26.39-1.74,1.21-3.54,2.35-5.33,3.5l-2.74,1.76a15.32,15.32,0,0,0-2.6,1.74,1.23,1.23,0,0,0,.51,2.09,3.33,3.33,0,0,0,2.48-.1,31.31,31.31,0,0,0,5.06-2.81c1-.58,2-1.17,3-1.74s2.17-1.16,3.24-1.77c.07,0,.14.07.08.12-1,.72-1.95,1.5-2.95,2.22s-2,1.44-3,2.14-1.93,1.29-2.92,1.91a9.15,9.15,0,0,1-2.73,1.21c-1.57.35-3.92-.23-4.07-2.16A2.5,2.5,0,0,1,545.34,386.16Z" style="fill:#263238"></path><path d="M402.87,396.86c2.15-2,4.41-3.95,6.65-5.89s4.47-3.82,6.74-5.71c4.54-3.78,9.13-7.51,13.82-11.12s9.5-7.07,14.41-10.36,9.85-6.32,15-9.09c2.59-1.38,5.22-2.72,7.9-3.91a80.77,80.77,0,0,1,8-3.28c.74-.24,1.48-.48,2.21-.74.11-.05.2.12.08.16-1.36.54-2.69,1.2-4,1.8s-2.63,1.21-3.93,1.82c-2.64,1.25-5.24,2.57-7.81,3.94q-7.74,4.15-15.12,8.94c-4.93,3.2-9.72,6.61-14.41,10.15s-9.37,7.21-14,11-9.06,7.5-13.62,11.22c-.58.47-1.15.93-1.74,1.38A.18.18,0,0,1,402.87,396.86Z" style="fill:#263238"></path><path d="M434,421.57c10.5-9.13,38.86-32.33,45.21-36.14a5.43,5.43,0,0,1,4.29-.51,11.56,11.56,0,0,1,4,2.74l4.33,3.76,8.88,7.7c5.56,4.83,11.07,9.7,16.69,14.45a129.91,129.91,0,0,0,15.75,11.78c10.68,6.57,24.34,11.07,36.63,6.36A24.78,24.78,0,0,0,582.75,420c2.84-5.31,4.21-11.3,5.14-17.22.22-1.43.42-2.86.6-4.3a.06.06,0,1,1,.11,0c-1.06,11.18-3.41,24.11-13.23,31.06-10.43,7.39-24.56,5.39-35.5.32-12.26-5.68-22.34-15.11-32.43-23.88L489.8,390.64c-1.42-1.24-2.82-2.53-4.29-3.72s-3.22-2.11-5-1.18c-5.94,3.11-44.87,35-46.25,36.09A.17.17,0,0,1,434,421.57Z" style="fill:#263238"></path><path d="M556.92,327.93c-4.2,17.07-14.37,43.59-23.35,43.44-8.2-.13-26.49-14.67-34.15-19.43s9.52-23.54,13.92-20.5c6.8,4.71,17,13.11,18.71,12.56,2.15-.69,4.88-6,17.11-21.53C554.16,316.11,558.7,320.67,556.92,327.93Z" style="fill: rgb(247, 169, 160);"></path><path d="M505.1,324.2c-3.62-1.27-7.66-3-11.67-2.95s-7.35,5.37-7.35,6.89,1.52,11,5.53,11,1.59-7.27,1.74-8.1.31-1.9,1.06-1.82,14,6.36,14,6.36Z" style="fill: rgb(247, 169, 160);"></path><path d="M504.84,324.76c-.23,0-11-4.24-15-4.17s-7.35,5.38-7.35,6.89,1.51,11,5.53,11,1.59-7.27,1.74-8.1.3-1.9,1.06-1.82,14,6.37,14,6.37Z" style="fill: rgb(247, 169, 160);"></path><path d="M489.39,338a4.87,4.87,0,0,0,.67-2.38,8.48,8.48,0,0,0-.15-2.56,14.08,14.08,0,0,1-.49-2.21,4.53,4.53,0,0,1,.56-2.12c.31-.56.9-.37,1.41-.19a19.42,19.42,0,0,1,2.18,1c.77.38,1.53.77,2.29,1.17a20.24,20.24,0,0,1,2.33,1.28.06.06,0,0,1-.05.11c-.7-.25-1.36-.6-2-.92s-1.52-.71-2.29-1.05-1.42-.68-2.15-1c-.25-.11-.76-.39-1.05-.32s-.46.82-.53,1.06a3.82,3.82,0,0,0,.14,2.17,11.07,11.07,0,0,1,.41,2.2,5.65,5.65,0,0,1-.16,2.09,8.12,8.12,0,0,1-1,1.73C489.46,338.11,489.33,338,489.39,338Z" style="fill:#263238"></path><path d="M517.57,335.29s-11.12-10.13-13.44-12.15c-4.64-4-24.21-12-26.93-12.32s-3.71,5.3,9.57,11.11c7,3.06,8.24,7.07,8.11,9.29s-2.26,6.36-6,6.26-6.16-5.55-9.6-6.16-1.16,5.69,1.26,9.32a22.93,22.93,0,0,0,10.05,7.85c3.23,1.21,13.23,5.52,13.23,5.52Z" style="fill: rgb(247, 169, 160);"></path><path d="M484.25,334.85c1.41,1.09,3,2.5,4.85,2.57s3.16-1.17,4-2.73a7.11,7.11,0,0,0,1-5.16,8.67,8.67,0,0,0-2.56-4.19,21.16,21.16,0,0,0-5.06-3.37c-.08,0,0-.16.07-.12,1.72.77,7.07,3,8.14,7.68a7.22,7.22,0,0,1-1,5.26c-.83,1.49-2,2.92-3.85,3.07-2.2.18-4.1-1.62-5.69-3C484.07,334.85,484.18,334.8,484.25,334.85Z" style="fill:#263238"></path><path d="M517.57,333.88,500.93,359.7s26.4,14.79,33.87,12.41,18.75-23.8,23.39-42.58-6.88-11.59-11.36-5.79S532.64,343,532.11,342.79,517.57,333.88,517.57,333.88Z" style="fill:#B0AE7E"></path><path d="M510.36,345.07a27.05,27.05,0,0,1,3.14,1.32,33.21,33.21,0,0,1,6.17,4.06c.5.43,1,.86,1.51,1.32l.2.17a118.83,118.83,0,0,1,8.58,9,111.23,111.23,0,0,0,8.54,8.82,5.3,5.3,0,0,1-.46.39,116.08,116.08,0,0,1-8.55-8.78,120.29,120.29,0,0,0-8.85-9.2l-.2-.17c-.38-.35-.77-.69-1.18-1a32,32,0,0,0-6-4A25.05,25.05,0,0,0,510,345.6ZM504,355c1.39,1.48,2.74,3,4.1,4.48,2.23,2.48,4.49,4.95,6.91,7.25l1.66.74a113.09,113.09,0,0,1-8.11-8.41c-1.23-1.37-2.45-2.75-3.71-4.11l-.24-.25-.24-.26-.19.28L504,355Zm0,0a7.87,7.87,0,0,0,.84,0c1.4-.07,2.78-.2,4.16-.39a96.12,96.12,0,0,0,11.68-2.45c.25-.05.49-.12.74-.19l1.9-.5a113.34,113.34,0,0,1,14.25-3.25,37,37,0,0,1,7.28-.28,27.6,27.6,0,0,1,6.56,1.27l.19-.42a27.48,27.48,0,0,0-6.72-1.25,36.82,36.82,0,0,0-7.35.35,112.55,112.55,0,0,0-14.28,3.35l-2,.56-.74.19a81,81,0,0,1-11.5,2.39c-1.46.19-2.91.32-4.38.37l-.43,0Zm42.45-30.73a87.36,87.36,0,0,0,8.45,3l.26.08c.65.18,1.29.35,1.94.51.48.12,1,.23,1.46.31l.12-.61-1.43-.3c-.51-.13-1-.26-1.52-.41l-.25-.06a91,91,0,0,1-8.62-3C546.7,323.92,546.56,324.1,546.41,324.28Zm-14.24,18.49a27.15,27.15,0,0,0,3.56-1.22,35.66,35.66,0,0,0,6.45-3.52,115,115,0,0,0,11.36-9.29l1.58-1.39.57-.5q1.74-1.52,3.52-3a2.28,2.28,0,0,0,0-.26c-1.29,1-2.54,2.09-3.79,3.17l-.58.48-1.48,1.29A113.46,113.46,0,0,1,542,337.75a35.92,35.92,0,0,1-6.41,3.43,27.48,27.48,0,0,1-2.77,1A3,3,0,0,1,532.17,342.77Zm-19.72-.95c.52.17,1,.32,1.58.47a36.91,36.91,0,0,0,14.6,1.19,29.14,29.14,0,0,0,3.47-.68l-.56-.32a27.41,27.41,0,0,1-3,.53,37,37,0,0,1-14.41-1.28c-.46-.12-.93-.26-1.39-.42Z" style="fill:#fff"></path><path d="M519.54,368.72c6,2.46,11.91,4.24,15,3.46l.27-.07c7.47-2.39,18.75-23.79,23.4-42.58a29.38,29.38,0,0,0,1.07-7.72c0-.1,0-.18,0-.28s0-.3,0-.44a1,1,0,0,0,0-.18c0-.14,0-.28-.06-.41Z" style="opacity:0.1"></path><path d="M510.22,357.16c.53-.91,1.06-1.83,1.6-2.74,1.07-1.82,7.52-12.64,10.06-15.92.07-.09.2,0,.16.11-1.78,3.78-8.46,14.39-9.57,16.14-.57.9-1.14,1.79-1.72,2.68s-1.27,1.72-1.85,2.61c0,.09-.2,0-.15-.07C509.28,359.06,509.7,358.08,510.22,357.16Z" style="fill:#263238"></path><path d="M594.67,401.3c-.16.17-58.12-18-58.73-18.7-.84-1,8.76-55,15.73-63.88,1.49-1.9,11.17-5.43,16.09,0C586.88,340.1,595.23,400.67,594.67,401.3Z" style="fill:#B0AE7E"></path><path d="M537.82,369.1c.78.75,1.59,1.46,2.43,2.15a41.25,41.25,0,0,0,8.6,5.6l.46.22a33.57,33.57,0,0,0,3.48,1.38,26.21,26.21,0,0,0,7.11,1.39,30.86,30.86,0,0,0,7.24-.48,86.19,86.19,0,0,0,13.26-3.86l.66-.22.09,0c2.83-1,5.67-1.93,8.56-2.72,0,.07,0,.13,0,.2-2.87.78-5.71,1.76-8.51,2.76l-.65.23a90.55,90.55,0,0,1-13.38,4,32.24,32.24,0,0,1-7.33.56,27.08,27.08,0,0,1-7.24-1.35,33.89,33.89,0,0,1-4.11-1.65l-.45-.21a41.84,41.84,0,0,1-8.2-5.34c-.75-.62-1.47-1.25-2.18-1.91Q537.75,369.46,537.82,369.1Zm-1.5,9.13c.7.09,1.4.16,2.11.19a32,32,0,0,0,7.32-.55c.94-.17,1.87-.39,2.78-.62.27-.05.52-.12.78-.18,3.56-.95,7-2.22,10.47-3.43a84.23,84.23,0,0,1,14.05-4c.49-.09,1-.16,1.48-.23.24,0,.49-.07.73-.09a41,41,0,0,1,12.31.28l.7.13a2.83,2.83,0,0,0-.09-.37l-.54-.11a41.65,41.65,0,0,0-12.56-.16l-.73.1-1.34.22a94.53,94.53,0,0,0-14.08,4c-3.59,1.23-7.18,2.51-10.86,3.43-.25.07-.51.14-.77.19-.79.19-1.59.35-2.38.5a32.68,32.68,0,0,1-7.25.48c-.69,0-1.39-.11-2.07-.22Zm5.84-30.38c.88,0,1.76,0,2.65.06a27.25,27.25,0,0,1,7.1,1.45,36.89,36.89,0,0,1,12.37,7.47A82.25,82.25,0,0,1,574,367.72l1.16,1.47a1.74,1.74,0,0,0,.18.22c1.62,2.07,3.28,4.14,5.09,6.09a.93.93,0,0,0,.19.21q1.47,1.59,3.09,3a28.54,28.54,0,0,0,6.07,4.19c.77.38,1.56.74,2.36,1,0-.23-.09-.47-.14-.72-.65-.26-1.3-.56-1.94-.87a27.8,27.8,0,0,1-5.94-4.12c-1-.88-1.94-1.82-2.85-2.79l-.18-.2c-1.78-1.9-3.4-3.92-5-6a1.81,1.81,0,0,0-.18-.23c-.45-.58-.92-1.18-1.39-1.76a84.64,84.64,0,0,0-9.8-10.93,36.79,36.79,0,0,0-12.61-7.48,27.83,27.83,0,0,0-7.22-1.41c-.87-.05-1.73-.06-2.59,0A2.83,2.83,0,0,0,542.16,347.85Zm6.36-22.74c2.08.8,4.2,1.54,6.34,2.16l.26.08c.65.18,1.29.35,1.94.51a33.38,33.38,0,0,0,7.32.95,25.45,25.45,0,0,0,3.7-.24c.6-.08,1.21-.21,1.81-.33s1.21-.19,1.81-.36,1.41-.35,2.1-.55a3.6,3.6,0,0,0-.29-.5c-.64.18-1.29.34-1.94.49-1.19.26-2.39.44-3.58.65a25.64,25.64,0,0,1-3.61.22,32.85,32.85,0,0,1-7.17-.93c-.51-.13-1-.26-1.52-.41l-.25-.06c-2.27-.64-4.48-1.43-6.69-2.28C548.67,324.7,548.6,324.9,548.52,325.11Zm-3.39,10.77c2.93-2.24,5.66-4.7,8.41-7.14l1.58-1.39.57-.5a82.76,82.76,0,0,1,9.3-7.2c.74-.49,1.49-.95,2.26-1.4l-.19-.18c-.75.43-1.48.9-2.2,1.38a94.35,94.35,0,0,0-9.42,7.34l-.58.48-1.48,1.29c-2.67,2.33-5.31,4.69-8.11,6.83A4.5,4.5,0,0,1,545.13,335.88Z" style="fill:#fff"></path><path d="M572.68,336c-3,17.4-17.57,49.94-27.09,53-11,3.54-49.26-8.68-56.76-14.18-3-2.19,12.93-21.45,16.65-20.09,15.57,5.73,29.38,8.67,31.38,7.31,3.08-2.09,15.64-20.09,23.81-31.26C570.93,316.75,574,328.18,572.68,336Z" style="fill: rgb(247, 169, 160);"></path><polygon points="456.48 314.11 475.24 302.28 488.3 339.17 469.64 348.96 456.48 314.11" style="fill:#B0AE7E"></polygon><polygon points="456.48 314.11 475.24 302.28 488.3 339.17 469.64 348.96 456.48 314.11" style="opacity:0.1"></polygon><path d="M458.82,314.09l15.94-9.88.65,1.15L485.74,335a35.58,35.58,0,0,0-3.83,4.08c-1.49,1.95-5.8,8.26-10.67,8.49Z" style="fill:#fff"></path><path d="M459.51,316a27.24,27.24,0,0,0,6.38-3.74c2.15-2,4.23-4.18,6-5.11s3.48-1.92,3.48-1.92l-.57-1-15.94,9.88Z" style="fill:#ebebeb"></path><polygon points="496.51 350.96 467.82 349.76 456.48 314.11 486.48 313.18 496.51 350.96" style="fill:#B0AE7E"></polygon><path d="M489.81,375.34c-1.7-.6-13.42-9.11-16.87-13.1a51.27,51.27,0,0,1-9-14c-3.48-8.1-5.11-14-4.28-16.67,1-3.09,1.25-3.59,9.35,9.85,4.58,7.6,8.95,8.45,12.74,8.38a58.29,58.29,0,0,1,26.91,6S496.35,377.68,489.81,375.34Z" style="fill: rgb(247, 169, 160);"></path><path d="M491.69,344.35a30.53,30.53,0,0,1,7.32,2.87,18.9,18.9,0,0,1,5.29,4.95c.07.08-.05.2-.12.11-3.21-3.94-8-5.92-12.52-7.82A.06.06,0,0,1,491.69,344.35Z" style="fill:#263238"></path><path d="M479.86,349.78c3.92.06-8.81-7.88-9-12.34s4.15-3.05,7.57-.53c11.88,8.72,20.84,8.3,26.87,16.64S479.86,349.78,479.86,349.78Z" style="fill: rgb(247, 169, 160);"></path><path d="M536,361c-3,.82-24.24-5-24.24-5l-11.91,28.81s36.91,8.59,45.53,5.61,22-32.27,26.37-49.28c4.08-16-1.35-26.44-12.77-9.87C559,331.25,537.61,360.53,536,361Z" style="fill:#B0AE7E"></path><path d="M529.34,360.22l.62.68a97.64,97.64,0,0,0,10.29,10.35,41.25,41.25,0,0,0,8.6,5.6l.46.22a33.57,33.57,0,0,0,3.48,1.38,25.31,25.31,0,0,0,2.83.8c-.09.14-.17.26-.25.4-.92-.2-1.83-.46-2.73-.75a33.89,33.89,0,0,1-4.11-1.65l-.45-.21a41.84,41.84,0,0,1-8.2-5.34,100.71,100.71,0,0,1-10.39-10.37c-.39-.44-.8-.87-1.19-1.32Zm-19.73,1a87.75,87.75,0,0,0,8.82,8.64,39.58,39.58,0,0,0,12.77,7.21,27.81,27.81,0,0,0,7.23,1.35,32,32,0,0,0,7.32-.55c.94-.17,1.87-.39,2.78-.62.27-.05.52-.12.78-.18,3.15-.84,6.22-1.93,9.29-3a2.38,2.38,0,0,0,.17-.31c-3.27,1.13-6.56,2.28-9.92,3.11-.25.07-.51.14-.77.19-.79.19-1.59.35-2.38.5a32.68,32.68,0,0,1-7.25.48,26.85,26.85,0,0,1-7.1-1.4,39.51,39.51,0,0,1-12.55-7.21,87.45,87.45,0,0,1-8.93-8.82Zm36.89-13.14a27.49,27.49,0,0,1,5.41,1.28,36.89,36.89,0,0,1,12.37,7.47c.57.5,1.11,1,1.64,1.55.09-.19.16-.4.24-.59-.48-.48-1-.93-1.49-1.39a36.79,36.79,0,0,0-12.61-7.48,27.81,27.81,0,0,0-5.27-1.22C546.7,347.83,546.6,348,546.5,348.08ZM561,328.57a30.06,30.06,0,0,0,3.41.24,25.45,25.45,0,0,0,3.7-.24c.6-.08,1.21-.21,1.81-.33s1.21-.19,1.81-.36c.36-.08.72-.17,1.07-.27a4.88,4.88,0,0,0-.12-.55l-1.08.26c-1.19.26-2.39.44-3.58.65a25.64,25.64,0,0,1-3.61.22,26.25,26.25,0,0,1-3-.19Z" style="fill:#fff"></path><path d="M518.15,388.48l2.67.47" style="fill:#ebebeb"></path><path d="M531.64,360.66c-.81-.14-1.68-.3-2.59-.48" style="fill:#ebebeb"></path><path d="M545.86,389.51c7.22-3.7,16.12-23.05,17.84-26.85,1.09-2.43,2.1-4.9,3.08-7.38,2-5,3.78-10,5.5-15a.07.07,0,0,1,.14,0c-.95,3.9-2.09,7.77-3.41,11.57a44.24,44.24,0,0,0,2.35-4.4c0-.07.16,0,.13.05a24.07,24.07,0,0,1-2.75,5.09q-2,5.73-4.58,11.23c-.5,1.06-10.8,24.77-18.87,27-2.8.77-12.4.07-14.44-.39-.09,0-.11-.13,0-.13C533.61,390.2,543.28,390.83,545.86,389.51Z" style="fill:#263238"></path><path d="M507.84,381.3c.36-1,.72-2,1.09-3,.74-2,5.18-13.76,7.11-17.44a.09.09,0,0,1,.17.07c-1.08,4-5.79,15.66-6.58,17.58-.4,1-.81,2-1.22,2.94s-1,1.91-1.36,2.9c0,.09-.2.05-.16-.05C507.25,383.33,507.49,382.29,507.84,381.3Z" style="fill:#263238"></path><path d="M511.77,356c1.76.08,17.63,3.77,21.13,4.56a7.18,7.18,0,0,0,2.59.35,3.78,3.78,0,0,0,2.08-1.55c1.14-1.3,13.55-17.71,14.45-18.51.34-.31.61-.37.28.15-.55.89-12.61,17.09-13.71,18.36s-2,2.43-3.69,2.36c-.75,0-22.15-4.83-23.2-5.27C511.48,356.38,511.5,356,511.77,356Z" style="fill:#263238"></path><path d="M553.38,328.56c3.22-.06,10.42-5.35,11.46-10.25.07-.34-1.28-3.25-2.76-6.86-.89-2.2-1.83-4.66-2.52-7-.14-.47-13.45,7.87-13.45,7.87a38.34,38.34,0,0,1,4.06,8.46,5.13,5.13,0,0,1,.19,1,1,1,0,0,0,0,.16C550.63,323.84,549.93,328.64,553.38,328.56Z" style="fill: rgb(247, 169, 160);"></path><path d="M550.35,321.78l0,.16a9.64,9.64,0,0,0,1.51-.36c8.48-2.75,7.53-14.11,7.16-16.95-2.47,1.14-12.94,7.71-12.94,7.71a38.53,38.53,0,0,1,4.06,8.47A5,5,0,0,1,550.35,321.78Z" style="fill:#263238"></path><path d="M561.82,297.59a27.52,27.52,0,0,0,.83,4.91c.5,1.23,3.53,2.18,3.53,2.18s-3.1,1.59-4.06,1.49-2.76-2.27-2.76-2.27,1.88,3.62,3.23,3.64c.84,0-2,.42-2,.42a3.82,3.82,0,0,1-2.63-.82C556.85,306.18,561.82,297.59,561.82,297.59Z" style="fill:#263238"></path><path d="M556.86,285.66c3,4.77,4.2,20.49,1.39,24.81-4.07,6.27-12.7,9-18.53,3.71-5.64-5.17-6.89-25.68-3.57-29.82C541,278.28,552.49,278.62,556.86,285.66Z" style="fill: rgb(247, 169, 160);"></path><path d="M544.36,298.75s.08.05.09.09c0,1.06.29,2.27,1.28,2.54,0,0,0,.06,0,.06C544.54,301.37,544.24,299.77,544.36,298.75Z" style="fill:#263238"></path><path d="M545.21,297.57c1.69-.27,2.11,3.13.54,3.38S543.79,297.8,545.21,297.57Z" style="fill:#263238"></path><path d="M538.53,299.44s-.07.06-.06.1c.16,1,.17,2.28-.74,2.75,0,0,0,.07,0,.06C538.89,302,538.86,300.41,538.53,299.44Z" style="fill:#263238"></path><path d="M537.46,298.45c-1.71.08-1.43,3.5.16,3.43S538.89,298.39,537.46,298.45Z" style="fill:#263238"></path><path d="M546.36,295.85a12.38,12.38,0,0,1-1.37-.31,2.29,2.29,0,0,1-1.35-.57.75.75,0,0,1,0-.89,1.82,1.82,0,0,1,1.78-.4,2.66,2.66,0,0,1,1.65.95A.78.78,0,0,1,546.36,295.85Z" style="fill:#263238"></path><path d="M535.93,296.9a12.24,12.24,0,0,0,1.31-.51,2.34,2.34,0,0,0,1.24-.79.75.75,0,0,0-.15-.87,1.79,1.79,0,0,0-1.82-.12,2.64,2.64,0,0,0-1.48,1.2A.77.77,0,0,0,535.93,296.9Z" style="fill:#263238"></path><path d="M546.79,308.18c-.22.28-.43.65-.81.73a2.87,2.87,0,0,1-1.16-.13s-.07,0,0,.06a1.45,1.45,0,0,0,1.41.41,1.13,1.13,0,0,0,.71-1C546.91,308.15,546.83,308.14,546.79,308.18Z" style="fill:#263238"></path><path d="M545.3,305.16a3.64,3.64,0,0,1-2.2,1.89,4.31,4.31,0,0,1-1.29.22h-.48a.25.25,0,0,1-.24-.21h0a.41.41,0,0,1,0-.11h0v-.09c-.12-.81-.19-2.06-.19-2.06-.28.19-1.71,1.05-1.74.63a55,55,0,0,1,.06-11,.1.1,0,0,1,.2,0c.34,3.39.09,6.82.39,10.23a6.26,6.26,0,0,1,1.63-.73c.12,0,.1,2.41.18,2.77a.16.16,0,0,0,0,0,5,5,0,0,0,3.58-1.61C545.26,305,545.35,305.07,545.3,305.16Z" style="fill:#263238"></path><path d="M542.24,306.8a4.31,4.31,0,0,0,1.87,1.11,1.89,1.89,0,0,0,1.17-.07c.82-.33.74-1.1.51-1.74a5.21,5.21,0,0,0-.5-1A5.6,5.6,0,0,1,542.24,306.8Z" style="fill:#263238"></path><path d="M544.11,307.91a1.89,1.89,0,0,0,1.17-.07c.82-.33.74-1.1.51-1.74A2,2,0,0,0,544.11,307.91Z" style="fill:#ff9bbc"></path><path d="M559.72,299.36c-2.9-.37-5.74-9.46-5.74-9.46l.25,5.19a12.34,12.34,0,0,1-3.75-3.53,9.06,9.06,0,0,1-1-5s-2.58,3.69-6,5.17c-1.25.55-10.87,2-11,1.38-.28-1.78,2.54-8.72,4.7-10.74a12.71,12.71,0,0,1,12.27-3.44c6.08,1.32,8.14,4.78,9.43,7.51S560.78,299.49,559.72,299.36Z" style="fill:#263238"></path><path d="M546.86,304a5,5,0,0,1-5.07-4.94h0a5,5,0,1,1,6.3,4.77A4.57,4.57,0,0,1,546.86,304Zm-4.4-5a4.34,4.34,0,1,0,4.29-4.39,4.19,4.19,0,0,0-1.07.15A4.35,4.35,0,0,0,542.46,299Z" style="fill:#455a64"></path><path d="M536.39,305.46c-2,.3-4-1.69-4.4-4.42a6,6,0,0,1,.54-3.61,3.11,3.11,0,0,1,5.28-.77,6,6,0,0,1,1.55,3.31c.38,2.59-.8,4.93-2.65,5.42Zm-3.27-7.72a5.34,5.34,0,0,0-.47,3.21c.34,2.36,2,4.09,3.65,3.85s2.74-2.37,2.4-4.73a5.31,5.31,0,0,0-1.37-2.94,2.65,2.65,0,0,0-2.28-.91l-.25,0A2.75,2.75,0,0,0,533.12,297.74Z" style="fill:#455a64"></path><path d="M542,299.58l.35-.57c-.84-.53-2.7-1.12-3.72.35l.55.38C540.13,298.42,542,299.53,542,299.58Z" style="fill:#455a64"></path><path d="M564.3,297.64l.54-.39c-.18-.25-1.82-2.48-3.33-2.5s-10.17,2.1-10.54,2.19l.16.65c2.51-.61,9.28-2.19,10.37-2.17S563.86,297,564.3,297.64Z" style="fill:#455a64"></path><path d="M556.35,299.06s2.22-5.71,4.73-5,1.67,8.36-.69,10a2.73,2.73,0,0,1-3.89-.55Z" style="fill: rgb(247, 169, 160);"></path><path d="M560.78,296.23a0,0,0,1,1,0,.06c-1.64,1.18-2.18,3.11-2.43,5a1.5,1.5,0,0,1,2.09-.93s0,.11,0,.11a1.67,1.67,0,0,0-1.65,1,8.5,8.5,0,0,0-.5,1.65c0,.19-.36.17-.35,0v-.05C557.34,300.75,558.35,297.07,560.78,296.23Z" style="fill:#263238"></path><path d="M542,279.07a22.55,22.55,0,0,1,5.87-2.75c2.33-.66,9.92-1.21,12,0s3.56,8.23,3.76,9.25.68,7.35-1.35,9.2-3.85-8.74-8-11.72S542,279.07,542,279.07Z" style="fill:#B0AE7E"></path><path d="M542,279.07s8.17,1,12.27,4,5.92,13.57,8,11.72c.9-.82,1.23-1.88,1.39-3.6-.94-3-2.92-7.65-6-10.6-2.9-2.76-7.3-3.71-11.84-3.54A25.12,25.12,0,0,0,542,279.07Z" style="opacity:0.1"></path><path d="M562.56,301.19c-.62-2.8-4.64-9.94-8.31-13.82s-12.92-5.1-14.15-4.84c-3,.63-3.87,1.69-4.39,1.5s2.25-2.93,3-3.57,2.87-2.17,4.18-2.34,9.51-.57,13,2.43,9,12,8.66,14.61c-.09.62-.82,1.12-.95,2-.16,1.15-.2,2.46-.42,3.28C563,301.1,562.62,301.44,562.56,301.19Z" style="fill:#B0AE7E"></path><path d="M553.27,285.52a15,15,0,0,0,1.74-1.73,10.25,10.25,0,0,0,1.4-2,0,0,0,0,1,.09,0,8.08,8.08,0,0,1-1.22,2.23,6.9,6.9,0,0,1-1.93,1.64C553.27,285.7,553.2,285.58,553.27,285.52Z" style="fill:#263238"></path><path d="M562.17,298.36c.05-.21.15-.41.22-.62a3.76,3.76,0,0,0,.16-.74,6.79,6.79,0,0,1,.11-1.43,5.37,5.37,0,0,1,.53-1,2,2,0,0,0,.38-1.23c0-.06.08-.08.09,0a4.76,4.76,0,0,1-.62,2.34,8.52,8.52,0,0,0-.16,1.52,2.34,2.34,0,0,1-.57,1.3S562.15,298.44,562.17,298.36Z" style="fill:#263238"></path><path d="M560.73,295.45a10.66,10.66,0,0,0,.65-1.08,8.06,8.06,0,0,0,.45-1.15c.13-.38.22-.78.34-1.17s.33-.9.44-1.36a0,0,0,0,1,.09,0c-.12.48-.15,1-.26,1.47a11,11,0,0,1-.36,1.24,6.59,6.59,0,0,1-.52,1.11,3.16,3.16,0,0,1-.79.95A0,0,0,0,1,560.73,295.45Z" style="fill:#263238"></path><path d="M559.29,292.84a8,8,0,0,0,1.28-2c.31-.7.59-1.42.85-2.14,0-.05.11,0,.09,0a9.16,9.16,0,0,1-.65,2.3,4.61,4.61,0,0,1-.59,1,5.3,5.3,0,0,1-.91.86S559.25,292.89,559.29,292.84Z" style="fill:#263238"></path><path d="M557.77,290.36a2.88,2.88,0,0,0,.64-.87c.19-.35.38-.71.56-1.08s.35-.69.52-1a2.77,2.77,0,0,0,.35-1.12c0-.05.09-.05.09,0a2.86,2.86,0,0,1-.15,1.16,7.7,7.7,0,0,1-.48,1.2,9.27,9.27,0,0,1-.64,1.1,1.82,1.82,0,0,1-.82.76A.07.07,0,0,1,557.77,290.36Z" style="fill:#263238"></path><path d="M556.46,287.12c.22-.29.44-.59.64-.9s.38-.64.56-1,.39-.68.55-1c0-.05.11,0,.09,0a7.23,7.23,0,0,1-.37,1.11,8.3,8.3,0,0,1-.54,1,9.82,9.82,0,0,1-.66.93,2.9,2.9,0,0,1-.82.78s-.12,0-.09-.09A5.4,5.4,0,0,1,556.46,287.12Z" style="fill:#263238"></path><path d="M550.85,284.24c.23-.39.45-.77.72-1.14a13.25,13.25,0,0,1,2.84-2.88s.1,0,.07.07c-1.17,1.35-2.39,2.65-3.55,4A0,0,0,0,1,550.85,284.24Z" style="fill:#263238"></path><path d="M548.78,282.07a5.94,5.94,0,0,1,.82-1.05,12.63,12.63,0,0,1,2.22-1.71s.11,0,.07.07c-.66.6-1.34,1.18-2,1.82a10.35,10.35,0,0,0-.89,1c-.27.35-.46.74-.72,1.1a0,0,0,0,1-.06,0A3.36,3.36,0,0,1,548.78,282.07Z" style="fill:#263238"></path><path d="M546.26,281.32a5.5,5.5,0,0,1,.75-1,7.3,7.3,0,0,1,1.88-1.53c.05,0,.09.05.05.08a14,14,0,0,0-1.73,1.71c-.27.31-.52.63-.77.95a12,12,0,0,1-.73,1s-.06,0-.05,0A6.12,6.12,0,0,1,546.26,281.32Z" style="fill:#263238"></path><path d="M544.34,280.17c.26-.29.54-.56.82-.83a3.41,3.41,0,0,1,.9-.7c.05,0,.08,0,.05.08-.51.54-1,1.1-1.51,1.66a9.94,9.94,0,0,0-1.09,1.76s-.06,0-.06,0A3.72,3.72,0,0,1,544.34,280.17Z" style="fill:#263238"></path><path d="M542.15,280a6,6,0,0,1,1.71-1.46s.1.05,0,.08a7.21,7.21,0,0,0-1.52,1.55,9.84,9.84,0,0,0-1.1,1.88,0,0,0,0,1-.07,0A5,5,0,0,1,542.15,280Z" style="fill:#263238"></path><path d="M539.56,281.71a3.66,3.66,0,0,1,.18-.46,4.72,4.72,0,0,1,.51-.87,11.68,11.68,0,0,1,1.42-1.48c.05,0,.11,0,.06.08a8.85,8.85,0,0,0-1.31,1.49,7.84,7.84,0,0,0-.49.85c-.07.14-.13.29-.19.44a2.77,2.77,0,0,1-.18.43s-.08,0-.08,0A1.24,1.24,0,0,1,539.56,281.71Z" style="fill:#263238"></path><path d="M537.88,282.12c.13-.25.27-.48.42-.71a6.45,6.45,0,0,1,.51-.66c.18-.21.38-.41.56-.63,0-.06.11,0,.07.06a4.16,4.16,0,0,0-.51.68l-.44.67c-.15.23-.3.45-.44.68s-.27.48-.44.69c0,0-.08,0-.07,0A4.21,4.21,0,0,1,537.88,282.12Z" style="fill:#263238"></path><path d="M549.23,321.63s0,0,0,0c-.39,3-1.12,10.07,3.51,9.95a9.77,9.77,0,0,0,5.14-2.22,26.41,26.41,0,0,0,4.2-3.85,39.77,39.77,0,0,0,4-5c0-.07.16,0,.11.09-1.23,1.79-2.27,3.67-3.66,5.33a23.23,23.23,0,0,1-4.54,4.27c-1.6,1.11-3.48,2.19-5.45,2.15a3.72,3.72,0,0,1-3.57-3.16A17.41,17.41,0,0,1,549.23,321.63Z" style="fill:#263238"></path></g><g id="freepik--Plant--inject-384"><path d="M614.66,418.29c-2.54.09-5.36.24-7.46-1.41-1.93-1.51-3.66-3.77-3.41-6.37.08-.73.25-1.19,1-.88,1.21.49,2.14,1.82,3,2.75a24.58,24.58,0,0,0,3.51,3.33c.9.7,1.87,1.29,2.79,2,.12.08.23.17.34.26l.14.1h.07a.11.11,0,0,1,.1.05.08.08,0,0,1,0,.05A.13.13,0,0,1,614.66,418.29Z" style="fill:#263238"></path><path d="M614.78,418.13c-2.22,0-4.63.06-6.41-1.45a10.62,10.62,0,0,1-2.07-2.51c-.25-.42-1-1.67-.7-2.17.57-.9,3.23,2.77,3.59,3.12a10.87,10.87,0,0,0,4.92,2.55c.12.08.23.17.34.26a12.28,12.28,0,0,1-3.69-1.42c-1.58-.94-2.46-2.34-3.69-3.64-.27-.28-1.07-1.23-1.38-.64-.2.39.55,1.61.71,1.88a10.16,10.16,0,0,0,2,2.38c1.78,1.55,4.17,1.5,6.41,1.59A.08.08,0,0,1,614.78,418.13Z" style="fill:#fff"></path><path d="M616.05,419.84l-.06.29h0a.08.08,0,0,1,0,.05.1.1,0,0,1-.13-.05.06.06,0,0,1,0-.06v0l0-.09h0v0c-.45-1.68-.63-3.42-1.1-5.1s-1-3.17-1.34-4.8c-.2-1-.92-6.2,1.36-5.55,1,.28,1.7,1.74,2.08,2.62a10.77,10.77,0,0,1,.84,3.71C617.85,414,616.69,416.82,616.05,419.84Z" style="fill:#263238"></path><path d="M616.78,413.4a12.52,12.52,0,0,0-.36-3.5c-.11-.4-.6-2.3-1.24-2.25-.42,0-.49.85-.53,1.12a10.9,10.9,0,0,0,.46,3.44,48.67,48.67,0,0,1,.83,6.9l-.06.44c0,.12,0,.24,0,.37a.5.5,0,0,0,0,.12s0,.06,0,.1a.1.1,0,0,0,.13.05c0-.09,0-.19,0-.28a1.77,1.77,0,0,0,0,.23h0c0-.08,0-.16,0-.24v-.05c0-.13,0-.26,0-.39A51.24,51.24,0,0,0,616.78,413.4Zm-.77,5.22a39.62,39.62,0,0,0-.39-4.05c-.15-1.08-.35-2.15-.58-3.22a11.25,11.25,0,0,1-.29-1.83c0-.47,0-2.21.94-1.13a7,7,0,0,1,.89,3.41,17.22,17.22,0,0,1-.07,3.21C616.39,416.22,616.19,417.42,616,418.62Z" style="fill:#fff"></path><path d="M617.42,426.79h-.1c-2.31-.12-5.4.1-7.32-1.43-1.43-1.14-2.83-3.37-2.38-5.27.52-2.14,3.4.43,4.17,1a69.26,69.26,0,0,1,5.67,5.52l0,0h0S617.47,426.77,617.42,426.79Z" style="fill:#263238"></path><path d="M617.5,426.72l-.4-.25q-2.29-1.44-4.44-3.08c-.36-.28-3-2.6-3.36-1.77-.23.51.63,1.53.9,1.87a7.12,7.12,0,0,0,1.76,1.57c1.54,1,3.42,1.17,5.16,1.63l.25.07,0,0h0C617.47,426.77,617.52,426.75,617.5,426.72Zm-4.59-1.32a7.07,7.07,0,0,1-2-1.35c-.39-.37-1.76-1.76-1.4-2.32.2-.31.36-.15.73,0l.49.29c.38.25.74.55,1.1.84.64.51,1.28,1,1.94,1.48,1.08.78,2.18,1.52,3.32,2.22A35.18,35.18,0,0,1,612.91,425.4Z" style="fill:#fff"></path><path d="M621.65,422a13.74,13.74,0,0,1-4,6.93l0,0a.08.08,0,0,1-.11,0,.1.1,0,0,1,0-.14,1.14,1.14,0,0,0,.11-.11c.39-3.15.81-6.28,1.13-9.44.08-.74.66-5.48,2.12-4.71.9.48,1,2.42,1,3.29A13.78,13.78,0,0,1,621.65,422Z" style="fill:#263238"></path><path d="M620.81,417.8c-.08-.27-.22-.54-.52-.35-.56.35-.78,2.58-.88,3.19-.39,2.54-1,5-1.6,7.47l-.15.63-.14.19a.08.08,0,0,0,.11,0,.14.14,0,0,0,0-.06,2.48,2.48,0,0,0,.19-.26h0a15.9,15.9,0,0,0,2.29-4.47,15,15,0,0,0,.68-3.11A9,9,0,0,0,620.81,417.8Zm-3,10.68a1.48,1.48,0,0,0-.08.13,2.58,2.58,0,0,1,.08-.26,45.52,45.52,0,0,0,1.41-5.78c.17-1,.28-2,.48-3,.09-.41.29-1.6.64-1.79s.34.27.37.53,0,.55,0,.73A16,16,0,0,1,617.83,428.48Z" style="fill:#fff"></path><path d="M618.06,435.74h-.46l0-1.23c-.05-1.64-.12-3.29-.22-4.93-.05-.94-.12-1.87-.22-2.79,0,0,0-.06,0-.1a1.5,1.5,0,0,1,0-.22c0-.08,0-.16,0-.25a19.85,19.85,0,0,0-1.59-6c-.29-.64-.61-1.27-1-1.89l-.1-.17a.13.13,0,0,0,0-.05,1.62,1.62,0,0,0-.1-.18,1,1,0,0,0-.08-.14c-1.07-1.89-2.29-3.69-3.45-5.5-.34-.52-.67-1-1-1.56l-.06-.1-.07-.11c-1.46-2.31-2.9-4.63-4.41-6.89-.06-.08.08-.16.13-.07,1,1.49,2.09,3,3.14,4.45l.42.6.83,1.17c.54.79,1.09,1.57,1.62,2.37a65.78,65.78,0,0,1,4.26,6.89c.09.19.18.37.26.55s.11.23.16.34l.18.4a21.45,21.45,0,0,1,1.56,7.29l0,.53a1.94,1.94,0,0,0,0,.24v.13c0,.06,0,.11,0,.17h0s0,.09,0,.13,0,.3,0,.45c.07,1.65.11,3.29.15,4.93C618,434.68,618,435.21,618.06,435.74Z" style="fill:#263238"></path><path d="M604.24,405.94c-1.27-1.71-2.89-5.22-1-7.05a2,2,0,0,1,2.64-.2,5.81,5.81,0,0,1,1.75,3.18c.86,3,1.43,6,2.5,8.95a2.68,2.68,0,0,1,.11.31,0,0,0,0,1-.09,0l-.11-.29C608,409.41,605.74,408,604.24,405.94Z" style="fill:#263238"></path><path d="M610.12,410.82l0-.05a21.17,21.17,0,0,1-1.18-2.2,42.18,42.18,0,0,1-1.82-4.89c-.21-.64-1.12-3.77-2.24-2.52a2.84,2.84,0,0,0-.33,2.1,7.86,7.86,0,0,0,1,2.94,14.19,14.19,0,0,0,4.2,4.39l.23.17s0,.05,0,.08a.1.1,0,0,0,0,.05,0,0,0,0,0,0,0,.07.07,0,0,0,.1,0S610.14,410.84,610.12,410.82Zm-.49-.34a17.07,17.07,0,0,1-3.57-3.58,9.15,9.15,0,0,1-1.16-2.37,7.35,7.35,0,0,1-.25-1.15,5.2,5.2,0,0,1,0-.88c0-.65.28-1.35.66-1.41s.63.18.94.73a4.18,4.18,0,0,1,.28.56c.21.48.37,1,.53,1.48.26.83.53,1.66.83,2.47.2.56.41,1.11.65,1.64a21.64,21.64,0,0,0,1.39,2.71Z" style="fill:#fff"></path><path d="M632.88,396.34c-.31,2.48-.78,4.93-1.28,7.38-.28,1.39-.58,2.77-.86,4.16s-.77,3.09-.35,4.63h0a.78.78,0,0,1,0,.21l0,0a.18.18,0,0,1-.32-.06s0-.07,0-.1l0,0a5.88,5.88,0,0,1-.53-1.29,33.18,33.18,0,0,1-2.44-11.23,26.17,26.17,0,0,1,.72-6.89c.44-1.8,1.07-4.48,2.41-5.86s2.23.75,2.58,1.76C633.55,391.35,633.17,394,632.88,396.34Z" style="fill:#455a64"></path><path d="M630.66,391.08c-.9,0-1.56,2.92-1.88,4.18a25,25,0,0,0-.77,6.08,32.38,32.38,0,0,0,1.87,10.81c0,.13.09.28.14.42l0,0s0,.06,0,.1a.2.2,0,0,0,.33.06c-.06-.31-.11-.61-.14-.91s-.06-.55-.08-.82a43.34,43.34,0,0,1,.55-8.95C631.17,398.63,631.86,391.09,630.66,391.08ZM630,411.61c0,.4.11.8.19,1.19-.1-.29-.19-.57-.28-.86a36,36,0,0,1-1.7-9.53,25.57,25.57,0,0,1,.4-5.45,24.69,24.69,0,0,1,.7-2.85c.13-.39.78-2.83,1.34-2.71.39.08.49,2.28.49,2.33,0,.44,0,.88,0,1.32,0,.91-.08,1.82-.15,2.73-.17,2-.46,3.92-.69,5.88A34.13,34.13,0,0,0,630,411.61Z" style="fill:#fff"></path><path d="M647.12,403.19c-1.66,3.23-4.46,5.71-7.35,7.84-1.54,1.14-3.14,2.2-4.72,3.3a25.59,25.59,0,0,0-4.07,3.14l-.16.16a7.19,7.19,0,0,0-.84,1.17.1.1,0,0,1-.08.05s0,.1,0,.14-.07,0-.07,0a.88.88,0,0,0,0-.16h0a.12.12,0,0,1,0-.13l0-.05c0-.05,0-.11,0-.16.48-3.78,3.12-7.61,5.36-10.52a20.11,20.11,0,0,1,8.46-6.82c.87-.34,2.84-1.26,3.72-.55S647.47,402.5,647.12,403.19Z" style="fill:#455a64"></path><path d="M644.55,403.2c-.79-.79-3.11,1.16-3.69,1.61a38.53,38.53,0,0,0-4.8,4.67,34.74,34.74,0,0,0-6.14,8.88h0a.76.76,0,0,1-.08.11c0,.06,0,.11,0,.16l0,.05a.1.1,0,0,0,0,.13l.12-.13q.44-.54.9-1.05l.16-.16a72.3,72.3,0,0,1,7.18-6.34,36.87,36.87,0,0,0,4.78-4.65C643.3,406,645.21,403.86,644.55,403.2Zm-.72,1.74c-2,3.24-5.35,5.62-8.23,8a39,39,0,0,0-5.47,5.19,37.15,37.15,0,0,1,5.67-8,50.93,50.93,0,0,1,3.9-4,20.54,20.54,0,0,1,2.37-1.9,8.19,8.19,0,0,1,1.6-.86C644.77,403,644.16,404.38,643.83,404.94Z" style="fill:#fff"></path><path d="M629.45,426.51a.19.19,0,0,1-.17.09l.05.06a.06.06,0,0,1,0,.08,0,0,0,0,1-.08,0,32.7,32.7,0,0,1-7.56-11.05,17.15,17.15,0,0,1-1.09-5.44c0-1.27-.1-3.84,1-4.77,2.2-1.86,4.2,6,4.49,7.25.55,2.17.91,4.39,1.41,6.57.55,2.39,1.27,4.74,2,7.08A.19.19,0,0,1,629.45,426.51Z" style="fill:#455a64"></path><path d="M629.45,426.51c-.12-.2-.23-.41-.34-.61a36.85,36.85,0,0,1-4-10.63,34,34,0,0,0-1.46-5.54c-.18-.44-.73-2.12-1.45-1.27-.38.44-.07,3.64.08,4.46a23.91,23.91,0,0,0,1.78,5.44,38.72,38.72,0,0,0,5,8.16l.17.22a.05.05,0,0,0,0-.08.1.1,0,0,1,0-.05A.21.21,0,0,0,629.45,426.51Zm-4.45-6.8a28,28,0,0,1-2.11-5.28,20.31,20.31,0,0,1-.46-2.22,13.06,13.06,0,0,1-.15-1.76c0-1.45.13-1.82.37-1.88s.36.13.78,1a8.28,8.28,0,0,1,.62,1.75c.23.85.42,1.71.61,2.58.37,1.72.72,3.45,1.22,5.14a28.25,28.25,0,0,0,3,6.91A43.7,43.7,0,0,1,625,419.71Z" style="fill:#fff"></path><path d="M639.29,418.92a10.92,10.92,0,0,1-2,4.19c-1.82,2.51-4.15,4.6-6.14,7q-.45.53-.87,1.08a5.57,5.57,0,0,1-.25.53s0-.21.1-.55h0c.32-1.67,1.37-6.7,2.67-9.27a22.4,22.4,0,0,1,2.91-4.55c.56-.63,1.89-2,2.88-1.71S639.45,418.12,639.29,418.92Z" style="fill:#455a64"></path><path d="M637.67,417.9c-1.07-.66-3.81,4.25-4.18,4.88a30.87,30.87,0,0,0-3.13,7.48c-.09.3-.16.59-.24.89s-.1.53-.1.55.23-.48.26-.53l.14-.19.72-.89c1.19-1.79,2.42-3.55,3.58-5.37a29.13,29.13,0,0,0,2.21-4.07C637.07,420.32,638.14,418.19,637.67,417.9Zm-.31,1.39c-1.51,4.26-4.6,7.63-7,11.42l-.12.18c0-.11.06-.22.1-.33a33.81,33.81,0,0,1,4.61-9.75,16.87,16.87,0,0,1,1.32-1.82c.21-.25.84-.88,1.05-.78S637.46,419,637.36,419.29Z" style="fill:#fff"></path><path d="M650,383.7c-3.17,7.27-11.48,10.66-15.08,17.67v0c-.11.21-.22.43-.32.65a.15.15,0,0,1-.24,0,.12.12,0,0,1,0-.12c0-.06,0-.11.07-.16a38,38,0,0,1,4.45-12.73,19.23,19.23,0,0,1,7.76-8.26c.85-.43,2.51-1.35,3.46-.63S650.38,382.8,650,383.7Z" style="fill:#455a64"></path><path d="M647.14,384c-.41-.3-1,.07-1.36.25a11.58,11.58,0,0,0-2.4,1.64,20.13,20.13,0,0,0-3.83,4.55A41.24,41.24,0,0,0,635,399.6q-.36,1.09-.63,2.22l-.06.28a.15.15,0,0,0,.24,0c.1-.22.2-.42.3-.63l0-.06a24.22,24.22,0,0,1,2.26-4.15,57.73,57.73,0,0,1,4.74-5.62C642.55,390.89,648.53,385,647.14,384Zm-.51,1.69a27.17,27.17,0,0,1-3.75,4.55c-1.32,1.47-2.65,2.92-3.94,4.41a27.18,27.18,0,0,0-2.77,3.78,21.89,21.89,0,0,0-1.73,3.5,29.45,29.45,0,0,1,1.24-3.64.05.05,0,0,1,0,0,53.66,53.66,0,0,1,3.07-6.11l0-.08a25.2,25.2,0,0,1,3.5-4.89,14.47,14.47,0,0,1,2.5-2.12c1-.67,2-1.11,2.21-.78S646.92,385.19,646.63,385.7Z" style="fill:#fff"></path><path d="M638.93,392.23c-.95,2-1.86,4.12-2.76,6.21l-1.26,2.93,0,.06-.45,1.06a65.52,65.52,0,0,0-3.72,9.83,30.93,30.93,0,0,0-.76,5.47,5.44,5.44,0,0,1,0,.57h0v.32a.91.91,0,0,0,0,.17c0,1.59,0,3.19,0,4.75,0,2.17.22,4.32.43,6.47a.58.58,0,0,0,0,.19c0,.1,0,.2,0,.3s0,.09,0,.15a2.45,2.45,0,0,0,0,.27c.07.69.13,1.38.19,2.08H630a42.57,42.57,0,0,1-.8-6.4.66.66,0,0,1,0-.14c0-.2,0-.42,0-.62s0-.52,0-.77c0-.63,0-1.24-.05-1.85a45.92,45.92,0,0,1,.76-10.73c0-.09.05-.19.07-.28l0-.12c0-.07,0-.14,0-.21l.09-.33c0-.2.11-.39.17-.58l.05-.17a68.94,68.94,0,0,1,3.66-8.83c.24-.53.48-1,.73-1.56l.41-.87c.22-.43.43-.87.65-1.3a.05.05,0,0,1,0,0c1-2,2.07-4.06,3.07-6.11A.09.09,0,0,1,638.93,392.23Z" style="fill:#455a64"></path><path d="M613.43,437.83h76.28s-3.57-5-7.51-6.08-12.89-4.3-14.5-6.09-15.21-8.41-20.4-8.23-13.78,6.08-15,7.52-5.64,6.8-7.07,7.24S617,433.72,613.43,437.83Z" style="fill:#B0AE7E"></path><path d="M613.43,437.83h76.28s-3.57-5-7.51-6.08-12.89-4.3-14.5-6.09-15.21-8.41-20.4-8.23-13.78,6.08-15,7.52-5.64,6.8-7.07,7.24S617,433.72,613.43,437.83Z" style="opacity:0.1"></path><path d="M674.72,429.44a18.1,18.1,0,0,1-4.41.39c-.61-.07-6.59-3-8.79-3.3s-14.12-.81-15-2.12c-.66-1,3.89-4.09,6.88-5.71,5.94,2,13.15,5.69,14.29,7,.83.92,3.6,2.22,6.63,3.41Z" style="fill:#B0AE7E"></path><path d="M654.74,429.09c0-.66,4-1.16,4.88-1s4.83,1.84,4.06,2.16a10.17,10.17,0,0,1-3.84.5C658.55,430.64,654.75,429.83,654.74,429.09Z" style="fill:#B0AE7E"></path><path d="M674.18,451.49c1.11,0,.23-1.27-.23-1.63a9.11,9.11,0,0,0-3.49-1.25c-.83.07-1.61,1.15-2.58,1.44s-2.53,1.12-2.3,1.44Z" style="fill:#B0AE7E"></path><path d="M627.76,442.77H594.62s-.12-4,1-5.5a9,9,0,0,1,2.68-2.13,24.94,24.94,0,0,0,2.51-2.83c.85-1.14,2.09-2.85,2.72-3s3.55-.79,4.15-.54,3.85,3.2,4.2,3.33,6.62,3.3,7.19,3.42a25,25,0,0,1,5.25,2C626.34,438.67,627.76,442.77,627.76,442.77Z" style="fill:#B0AE7E"></path></g></svg>