<svg id="visual" viewBox="0 0 900 521" width="900" height="521" xmlns="http://www.w3.org/2000/svg" xmlns:xlink="http://www.w3.org/1999/xlink" version="1.1"><rect x="0" y="0" width="900" height="521" fill="#FF0066"></rect><g transform="translate(449.9691862624693 258.3814649900029)"><path d="M76.4 -111C98.8 -89 116.4 -66.3 129.4 -39.1C142.3 -11.8 150.6 19.9 144.1 49C137.6 78.1 116.4 104.6 90 127C63.5 149.4 31.7 167.7 -1.4 169.6C-34.5 171.5 -69 156.9 -88.3 132.2C-107.7 107.5 -111.9 72.6 -121.6 40.1C-131.3 7.6 -146.5 -22.4 -146.3 -55.1C-146.1 -87.7 -130.5 -122.9 -103.5 -143.5C-76.6 -164 -38.3 -170 -5.6 -162.3C27 -154.5 54.1 -133.1 76.4 -111" fill="none" stroke="#ffffff" stroke-width="5"></path></g></svg>