<svg id="visual" viewBox="0 0 900 521" width="900" height="521" xmlns="http://www.w3.org/2000/svg" xmlns:xlink="http://www.w3.org/1999/xlink" version="1.1"><rect x="0" y="0" width="900" height="521" fill="#FF0066"></rect><g transform="translate(463.57390665347936 248.6597729167687)"><path d="M96.2 -128C115.9 -118.1 116.9 -78.2 114.2 -46.5C111.6 -14.8 105.3 8.7 97.9 32C90.6 55.4 82.3 78.7 65.9 100.1C49.4 121.6 24.7 141.3 -6.2 149.8C-37 158.3 -74.1 155.6 -94.5 135.4C-115 115.2 -118.8 77.5 -127.3 43.3C-135.7 9.1 -148.7 -21.7 -139 -43.2C-129.3 -64.7 -97 -76.8 -70.1 -84.4C-43.1 -91.9 -21.6 -94.8 8.4 -106.3C38.3 -117.8 76.6 -137.9 96.2 -128" fill="none" stroke="#ffffff" stroke-width="5"></path></g></svg>