<svg id="visual" viewBox="0 0 900 521" width="900" height="521" xmlns="http://www.w3.org/2000/svg" xmlns:xlink="http://www.w3.org/1999/xlink" version="1.1"><rect x="0" y="0" width="900" height="521" fill="#FF0066"></rect><g transform="translate(465.46925395802856 262.06934462184284)"><path d="M71.7 -100.3C95.1 -81.6 117.9 -63.7 125.2 -40.8C132.6 -17.9 124.3 9.9 117.3 40.2C110.3 70.5 104.5 103.2 85.2 117.7C65.8 132.3 32.9 128.6 -2.7 132.3C-38.3 136 -76.6 147 -100.8 134.1C-125.1 121.1 -135.3 84.2 -145.2 48.4C-155 12.7 -164.5 -21.9 -155.3 -50.5C-146 -79 -118 -101.4 -89 -118.3C-60 -135.2 -30 -146.6 -2.9 -142.5C24.1 -138.5 48.2 -119 71.7 -100.3" fill="none" stroke="#ffffff" stroke-width="5"></path></g></svg>