<svg id="visual" viewBox="0 0 900 521" width="900" height="521" xmlns="http://www.w3.org/2000/svg" xmlns:xlink="http://www.w3.org/1999/xlink" version="1.1"><path d="M756 521L754.3 508.7C752.7 496.3 749.3 471.7 748.8 446.8C748.3 422 750.7 397 752.5 372.2C754.3 347.3 755.7 322.7 753.7 297.8C751.7 273 746.3 248 747.3 223.2C748.3 198.3 755.7 173.7 760.3 148.8C765 124 767 99 762.8 74.2C758.7 49.3 748.3 24.7 743.2 12.3L738 0L900 0L900 12.3C900 24.7 900 49.3 900 74.2C900 99 900 124 900 148.8C900 173.7 900 198.3 900 223.2C900 248 900 273 900 297.8C900 322.7 900 347.3 900 372.2C900 397 900 422 900 446.8C900 471.7 900 496.3 900 508.7L900 521Z" fill="#78a083"></path><path d="M787 521L784.8 508.7C782.7 496.3 778.3 471.7 775.3 446.8C772.3 422 770.7 397 775 372.2C779.3 347.3 789.7 322.7 795.5 297.8C801.3 273 802.7 248 800.5 223.2C798.3 198.3 792.7 173.7 787.2 148.8C781.7 124 776.3 99 777.8 74.2C779.3 49.3 787.7 24.7 791.8 12.3L796 0L900 0L900 12.3C900 24.7 900 49.3 900 74.2C900 99 900 124 900 148.8C900 173.7 900 198.3 900 223.2C900 248 900 273 900 297.8C900 322.7 900 347.3 900 372.2C900 397 900 422 900 446.8C900 471.7 900 496.3 900 508.7L900 521Z" fill="#5b9083"></path><path d="M811 521L810.2 508.7C809.3 496.3 807.7 471.7 808.2 446.8C808.7 422 811.3 397 815.2 372.2C819 347.3 824 322.7 824.7 297.8C825.3 273 821.7 248 819.5 223.2C817.3 198.3 816.7 173.7 817.8 148.8C819 124 822 99 820.2 74.2C818.3 49.3 811.7 24.7 808.3 12.3L805 0L900 0L900 12.3C900 24.7 900 49.3 900 74.2C900 99 900 124 900 148.8C900 173.7 900 198.3 900 223.2C900 248 900 273 900 297.8C900 322.7 900 347.3 900 372.2C900 397 900 422 900 446.8C900 471.7 900 496.3 900 508.7L900 521Z" fill="#477f81"></path><path d="M836 521L838 508.7C840 496.3 844 471.7 844.2 446.8C844.3 422 840.7 397 837.5 372.2C834.3 347.3 831.7 322.7 831 297.8C830.3 273 831.7 248 837.3 223.2C843 198.3 853 173.7 857.2 148.8C861.3 124 859.7 99 858.5 74.2C857.3 49.3 856.7 24.7 856.3 12.3L856 0L900 0L900 12.3C900 24.7 900 49.3 900 74.2C900 99 900 124 900 148.8C900 173.7 900 198.3 900 223.2C900 248 900 273 900 297.8C900 322.7 900 347.3 900 372.2C900 397 900 422 900 446.8C900 471.7 900 496.3 900 508.7L900 521Z" fill="#3d6d7b"></path><path d="M854 521L859.3 508.7C864.7 496.3 875.3 471.7 881.3 446.8C887.3 422 888.7 397 886.7 372.2C884.7 347.3 879.3 322.7 873.3 297.8C867.3 273 860.7 248 856.8 223.2C853 198.3 852 173.7 857.3 148.8C862.7 124 874.3 99 874.2 74.2C874 49.3 862 24.7 856 12.3L850 0L900 0L900 12.3C900 24.7 900 49.3 900 74.2C900 99 900 124 900 148.8C900 173.7 900 198.3 900 223.2C900 248 900 273 900 297.8C900 322.7 900 347.3 900 372.2C900 397 900 422 900 446.8C900 471.7 900 496.3 900 508.7L900 521Z" fill="#3c5b6f"></path></svg>