<svg id="visual" viewBox="0 0 900 521" width="900" height="521" xmlns="http://www.w3.org/2000/svg" xmlns:xlink="http://www.w3.org/1999/xlink" version="1.1"><path d="M753 521L763.7 499.3C774.3 477.7 795.7 434.3 794.7 391C793.7 347.7 770.3 304.3 761 260.8C751.7 217.3 756.3 173.7 768.7 130.2C781 86.7 801 43.3 811 21.7L821 0L900 0L900 21.7C900 43.3 900 86.7 900 130.2C900 173.7 900 217.3 900 260.8C900 304.3 900 347.7 900 391C900 434.3 900 477.7 900 499.3L900 521Z" fill="#fa7268"></path><path d="M815 521L814.5 499.3C814 477.7 813 434.3 813.8 391C814.7 347.7 817.3 304.3 818.8 260.8C820.3 217.3 820.7 173.7 823.3 130.2C826 86.7 831 43.3 833.5 21.7L836 0L900 0L900 21.7C900 43.3 900 86.7 900 130.2C900 173.7 900 217.3 900 260.8C900 304.3 900 347.7 900 391C900 434.3 900 477.7 900 499.3L900 521Z" fill="#e34c67"></path><path d="M874 521L873.2 499.3C872.3 477.7 870.7 434.3 865.8 391C861 347.7 853 304.3 846.7 260.8C840.3 217.3 835.7 173.7 840.8 130.2C846 86.7 861 43.3 868.5 21.7L876 0L900 0L900 21.7C900 43.3 900 86.7 900 130.2C900 173.7 900 217.3 900 260.8C900 304.3 900 347.7 900 391C900 434.3 900 477.7 900 499.3L900 521Z" fill="#c62368"></path></svg>