<svg id="visual" viewBox="0 0 900 521" width="900" height="521" xmlns="http://www.w3.org/2000/svg" xmlns:xlink="http://www.w3.org/1999/xlink" version="1.1"><path d="M753 521L756.8 508.7C760.7 496.3 768.3 471.7 767.3 446.8C766.3 422 756.7 397 751 372.2C745.3 347.3 743.7 322.7 746.5 297.8C749.3 273 756.7 248 763 223.2C769.3 198.3 774.7 173.7 773 148.8C771.3 124 762.7 99 759.5 74.2C756.3 49.3 758.7 24.7 759.8 12.3L761 0L900 0L900 12.3C900 24.7 900 49.3 900 74.2C900 99 900 124 900 148.8C900 173.7 900 198.3 900 223.2C900 248 900 273 900 297.8C900 322.7 900 347.3 900 372.2C900 397 900 422 900 446.8C900 471.7 900 496.3 900 508.7L900 521Z" fill="#35374b"></path><path d="M801 521L801.2 508.7C801.3 496.3 801.7 471.7 801.2 446.8C800.7 422 799.3 397 798 372.2C796.7 347.3 795.3 322.7 792.3 297.8C789.3 273 784.7 248 785.7 223.2C786.7 198.3 793.3 173.7 794.8 148.8C796.3 124 792.7 99 794.2 74.2C795.7 49.3 802.3 24.7 805.7 12.3L809 0L900 0L900 12.3C900 24.7 900 49.3 900 74.2C900 99 900 124 900 148.8C900 173.7 900 198.3 900 223.2C900 248 900 273 900 297.8C900 322.7 900 347.3 900 372.2C900 397 900 422 900 446.8C900 471.7 900 496.3 900 508.7L900 521Z" fill="#343c4e"></path><path d="M823 521L823.7 508.7C824.3 496.3 825.7 471.7 821.2 446.8C816.7 422 806.3 397 803.7 372.2C801 347.3 806 322.7 811.7 297.8C817.3 273 823.7 248 825.8 223.2C828 198.3 826 173.7 822.8 148.8C819.7 124 815.3 99 815.7 74.2C816 49.3 821 24.7 823.5 12.3L826 0L900 0L900 12.3C900 24.7 900 49.3 900 74.2C900 99 900 124 900 148.8C900 173.7 900 198.3 900 223.2C900 248 900 273 900 297.8C900 322.7 900 347.3 900 372.2C900 397 900 422 900 446.8C900 471.7 900 496.3 900 508.7L900 521Z" fill="#334051"></path><path d="M857 521L856.2 508.7C855.3 496.3 853.7 471.7 850.8 446.8C848 422 844 397 845.5 372.2C847 347.3 854 322.7 857.7 297.8C861.3 273 861.7 248 856 223.2C850.3 198.3 838.7 173.7 838.2 148.8C837.7 124 848.3 99 848.7 74.2C849 49.3 839 24.7 834 12.3L829 0L900 0L900 12.3C900 24.7 900 49.3 900 74.2C900 99 900 124 900 148.8C900 173.7 900 198.3 900 223.2C900 248 900 273 900 297.8C900 322.7 900 347.3 900 372.2C900 397 900 422 900 446.8C900 471.7 900 496.3 900 508.7L900 521Z" fill="#334553"></path><path d="M879 521L875.7 508.7C872.3 496.3 865.7 471.7 867.2 446.8C868.7 422 878.3 397 879.5 372.2C880.7 347.3 873.3 322.7 873.3 297.8C873.3 273 880.7 248 882.7 223.2C884.7 198.3 881.3 173.7 878.7 148.8C876 124 874 99 874.3 74.2C874.7 49.3 877.3 24.7 878.7 12.3L880 0L900 0L900 12.3C900 24.7 900 49.3 900 74.2C900 99 900 124 900 148.8C900 173.7 900 198.3 900 223.2C900 248 900 273 900 297.8C900 322.7 900 347.3 900 372.2C900 397 900 422 900 446.8C900 471.7 900 496.3 900 508.7L900 521Z" fill="#344955"></path></svg>