<svg id="visual" viewBox="0 0 900 521" width="900" height="521" xmlns="http://www.w3.org/2000/svg" xmlns:xlink="http://www.w3.org/1999/xlink" version="1.1"><path d="M149 0L138.3 21.7C127.7 43.3 106.3 86.7 107.3 130.2C108.3 173.7 131.7 217.3 141 260.8C150.3 304.3 145.7 347.7 133.3 391C121 434.3 101 477.7 91 499.3L81 521L0 521L0 499.3C0 477.7 0 434.3 0 391C0 347.7 0 304.3 0 260.8C0 217.3 0 173.7 0 130.2C0 86.7 0 43.3 0 21.7L0 0Z" fill="#fa7268"></path><path d="M87 0L87.5 21.7C88 43.3 89 86.7 88.2 130.2C87.3 173.7 84.7 217.3 83.2 260.8C81.7 304.3 81.3 347.7 78.7 391C76 434.3 71 477.7 68.5 499.3L66 521L0 521L0 499.3C0 477.7 0 434.3 0 391C0 347.7 0 304.3 0 260.8C0 217.3 0 173.7 0 130.2C0 86.7 0 43.3 0 21.7L0 0Z" fill="#e34c67"></path><path d="M28 0L28.8 21.7C29.7 43.3 31.3 86.7 36.2 130.2C41 173.7 49 217.3 55.3 260.8C61.7 304.3 66.3 347.7 61.2 391C56 434.3 41 477.7 33.5 499.3L26 521L0 521L0 499.3C0 477.7 0 434.3 0 391C0 347.7 0 304.3 0 260.8C0 217.3 0 173.7 0 130.2C0 86.7 0 43.3 0 21.7L0 0Z" fill="#c62368"></path></svg>