<svg id="visual" viewBox="0 0 900 521" width="900" height="521" xmlns="http://www.w3.org/2000/svg" xmlns:xlink="http://www.w3.org/1999/xlink" version="1.1"><path d="M0 125L21.5 126.3C43 127.7 86 130.3 128.8 130.8C171.7 131.3 214.3 129.7 257.2 128.2C300 126.7 343 125.3 385.8 127C428.7 128.7 471.3 133.3 514.2 132.5C557 131.7 600 125.3 642.8 121.2C685.7 117 728.3 115 771.2 118.5C814 122 857 131 878.5 135.5L900 140L900 0L878.5 0C857 0 814 0 771.2 0C728.3 0 685.7 0 642.8 0C600 0 557 0 514.2 0C471.3 0 428.7 0 385.8 0C343 0 300 0 257.2 0C214.3 0 171.7 0 128.8 0C86 0 43 0 21.5 0L0 0Z" fill="#001220"></path><path d="M0 98L21.5 99.8C43 101.7 86 105.3 128.8 107.8C171.7 110.3 214.3 111.7 257.2 107.8C300 104 343 95 385.8 90C428.7 85 471.3 84 514.2 86C557 88 600 93 642.8 97.8C685.7 102.7 728.3 107.3 771.2 106C814 104.7 857 97.3 878.5 93.7L900 90L900 0L878.5 0C857 0 814 0 771.2 0C728.3 0 685.7 0 642.8 0C600 0 557 0 514.2 0C471.3 0 428.7 0 385.8 0C343 0 300 0 257.2 0C214.3 0 171.7 0 128.8 0C86 0 43 0 21.5 0L0 0Z" fill="#102332"></path><path d="M0 77L21.5 77.8C43 78.7 86 80.3 128.8 79.8C171.7 79.3 214.3 76.7 257.2 73.3C300 70 343 66 385.8 65.5C428.7 65 471.3 68 514.2 69.8C557 71.7 600 72.3 642.8 71.3C685.7 70.3 728.3 67.7 771.2 69.2C814 70.7 857 76.3 878.5 79.2L900 82L900 0L878.5 0C857 0 814 0 771.2 0C728.3 0 685.7 0 642.8 0C600 0 557 0 514.2 0C471.3 0 428.7 0 385.8 0C343 0 300 0 257.2 0C214.3 0 171.7 0 128.8 0C86 0 43 0 21.5 0L0 0Z" fill="#1e3546"></path><path d="M0 55L21.5 53.3C43 51.7 86 48.3 128.8 48.3C171.7 48.3 214.3 51.7 257.2 54.5C300 57.3 343 59.7 385.8 60.2C428.7 60.7 471.3 59.3 514.2 54.3C557 49.3 600 40.7 642.8 37C685.7 33.3 728.3 34.7 771.2 35.7C814 36.7 857 37.3 878.5 37.7L900 38L900 0L878.5 0C857 0 814 0 771.2 0C728.3 0 685.7 0 642.8 0C600 0 557 0 514.2 0C471.3 0 428.7 0 385.8 0C343 0 300 0 257.2 0C214.3 0 171.7 0 128.8 0C86 0 43 0 21.5 0L0 0Z" fill="#2d485a"></path><path d="M0 40L21.5 35.3C43 30.7 86 21.3 128.8 16.2C171.7 11 214.3 10 257.2 11.7C300 13.3 343 17.7 385.8 22.8C428.7 28 471.3 34 514.2 37.3C557 40.7 600 41.3 642.8 36.7C685.7 32 728.3 22 771.2 22.2C814 22.3 857 32.7 878.5 37.8L900 43L900 0L878.5 0C857 0 814 0 771.2 0C728.3 0 685.7 0 642.8 0C600 0 557 0 514.2 0C471.3 0 428.7 0 385.8 0C343 0 300 0 257.2 0C214.3 0 171.7 0 128.8 0C86 0 43 0 21.5 0L0 0Z" fill="#3c5b6f"></path></svg>